<svg xmlns="http://www.w3.org/2000/svg" viewBox="0 0 100 100"><path fill="#19486A" d="M0 0h100v100H0z"/><path fill="#FFF" d="M74.826 47.399c0-7.023-5.587-12.76-12.546-13.014-1.79-5.055-6.618-8.687-12.28-8.687-5.661 0-10.488 3.632-12.28 8.687-6.959.254-12.544 5.992-12.544 13.014 0 4.167 1.97 7.881 5.026 10.267a13.002 13.002 0 00-.515 3.615c0 7.179 5.843 13.022 13.026 13.022a12.95 12.95 0 007.351-2.28 12.95 12.95 0 007.226 2.194c7.182 0 13.024-5.843 13.024-13.022 0-1.229-.174-2.417-.493-3.544 3.042-2.387 5.005-6.094 5.005-10.252m-14.424-8.678c0 5.214-3.858 9.53-8.868 10.275a10.398 10.398 0 01-.135-1.598c0-5.214 3.858-9.531 8.867-10.276a10.4 10.4 0 01.136 1.599M50.047 68.644a10.36 10.36 0 01-3.162-7.45c0-2.876 1.175-5.482 3.066-7.367a10.366 10.366 0 01.096 14.817M39.733 37.122c5.009.745 8.869 5.062 8.869 10.277 0 .544-.055 1.076-.137 1.598-5.01-.745-8.868-5.062-8.868-10.275 0-.546.055-1.078.136-1.6m7.756 14.929c-1.711 3.403-5.228 5.749-9.29 5.749-1.723 0-3.346-.429-4.778-1.173 1.711-3.403 5.229-5.749 9.291-5.749 1.723 0 3.345.428 4.777 1.173m4.987-.07a10.323 10.323 0 014.812-1.189c4.09 0 7.625 2.378 9.325 5.819a10.335 10.335 0 01-4.812 1.189c-4.091 0-7.627-2.378-9.325-5.819M49.999 28.32c4.263 0 7.929 2.578 9.536 6.255-4.232.746-7.764 3.539-9.536 7.319-1.769-3.78-5.303-6.573-9.534-7.319 1.606-3.678 5.272-6.255 9.534-6.255M27.797 47.399c0-5.36 4.074-9.783 9.287-10.342a12.995 12.995 0 004.146 11.285c-4.32.492-8.006 3.103-9.987 6.767-2.109-1.903-3.446-4.651-3.446-7.71m4.512 13.882c0-.74.079-1.46.228-2.155a12.959 12.959 0 005.663 1.297c2.281 0 4.423-.59 6.289-1.624a12.981 12.981 0 003.457 11.455 10.32 10.32 0 01-5.233 1.428c-5.739-.002-10.404-4.668-10.404-10.401m35.382-.087c0 5.734-4.667 10.4-10.403 10.4a10.32 10.32 0 01-5.129-1.365 12.976 12.976 0 003.334-11.441 12.938 12.938 0 006.308 1.634c2.035 0 3.963-.47 5.679-1.307.138.673.211 1.368.211 2.079m-8.842-12.928a12.99 12.99 0 004.066-11.209c5.213.558 9.288 4.981 9.288 10.342 0 3.045-1.324 5.78-3.418 7.684-1.96-3.673-5.627-6.299-9.936-6.817"/><path fill="#FFF" d="M74.826 47.399c0-7.023-5.587-12.76-12.546-13.014-1.79-5.055-6.618-8.687-12.28-8.687-5.661 0-10.488 3.632-12.28 8.687-6.959.254-12.544 5.992-12.544 13.014 0 4.167 1.97 7.881 5.026 10.267a13.002 13.002 0 00-.515 3.615c0 7.179 5.843 13.022 13.026 13.022a12.95 12.95 0 007.351-2.28 12.95 12.95 0 007.226 2.194c7.182 0 13.024-5.843 13.024-13.022 0-1.229-.174-2.417-.493-3.544 3.042-2.387 5.005-6.094 5.005-10.252m-14.424-8.678c0 5.214-3.858 9.53-8.868 10.275a10.398 10.398 0 01-.135-1.598c0-5.214 3.858-9.531 8.867-10.276a10.4 10.4 0 01.136 1.599M50.047 68.644a10.36 10.36 0 01-3.162-7.45c0-2.876 1.175-5.482 3.066-7.367a10.366 10.366 0 01.096 14.817M39.733 37.122c5.009.745 8.869 5.062 8.869 10.277 0 .544-.055 1.076-.137 1.598-5.01-.745-8.868-5.062-8.868-10.275 0-.546.055-1.078.136-1.6m7.756 14.929c-1.711 3.403-5.228 5.749-9.29 5.749-1.723 0-3.346-.429-4.778-1.173 1.711-3.403 5.229-5.749 9.291-5.749 1.723 0 3.345.428 4.777 1.173m4.987-.07a10.323 10.323 0 014.812-1.189c4.09 0 7.625 2.378 9.325 5.819a10.335 10.335 0 01-4.812 1.189c-4.091 0-7.627-2.378-9.325-5.819M49.999 28.32c4.263 0 7.929 2.578 9.536 6.255-4.232.746-7.764 3.539-9.536 7.319-1.769-3.78-5.303-6.573-9.534-7.319 1.606-3.678 5.272-6.255 9.534-6.255M27.797 47.399c0-5.36 4.074-9.783 9.287-10.342a12.995 12.995 0 004.146 11.285c-4.32.492-8.006 3.103-9.987 6.767-2.109-1.903-3.446-4.651-3.446-7.71m4.512 13.882c0-.74.079-1.46.228-2.155a12.959 12.959 0 005.663 1.297c2.281 0 4.423-.59 6.289-1.624a12.981 12.981 0 003.457 11.455 10.32 10.32 0 01-5.233 1.428c-5.739-.002-10.404-4.668-10.404-10.401m35.382-.087c0 5.734-4.667 10.4-10.403 10.4a10.32 10.32 0 01-5.129-1.365 12.976 12.976 0 003.334-11.441 12.938 12.938 0 006.308 1.634c2.035 0 3.963-.47 5.679-1.307.138.673.211 1.368.211 2.079m-8.842-12.928a12.99 12.99 0 004.066-11.209c5.213.558 9.288 4.981 9.288 10.342 0 3.045-1.324 5.78-3.418 7.684-1.96-3.673-5.627-6.299-9.936-6.817"/></svg>