<svg xmlns="http://www.w3.org/2000/svg" viewBox="0 0 100 100"><path fill="#FD9D24" d="M0 0h100v100H0z"/><g fill="#FFF"><path d="M16.495 61.318h15.043a.37.37 0 00.369-.37.363.363 0 00-.097-.245l-.021-.022-7.484-9.683-.073-.08a.367.367 0 00-.272-.12.375.375 0 00-.242.095l-.045.052-.07.079-7.301 9.581-.112.137a.369.369 0 00.305.576zM31.492 62.684H16.42a.369.369 0 00-.369.369v11.795c0 .204.165.37.369.37h4.851v-7.42c0-.205.164-.369.369-.369h4.503c.204 0 .369.164.369.369v7.42h4.98a.37.37 0 00.369-.37V63.053a.369.369 0 00-.369-.369zM83.583 59.596H68.666a.358.358 0 00-.364.354v15.063a.36.36 0 00.364.354h14.918a.36.36 0 00.365-.354V59.951a.359.359 0 00-.366-.355m-8.162 9.833a.36.36 0 01-.364.357H70.6a.361.361 0 01-.367-.357v-2.708a.36.36 0 01.367-.356h4.457c.202 0 .364.158.364.356v2.708zm0-5.005a.36.36 0 01-.364.356H70.6a.361.361 0 01-.367-.356v-2.71a.36.36 0 01.367-.354h4.457c.202 0 .364.159.364.354v2.71zm6.812 5.005a.36.36 0 01-.365.357h-4.456a.36.36 0 01-.365-.357v-2.708a.36.36 0 01.365-.356h4.456c.203 0 .365.158.365.356v2.708zm0-5.005a.36.36 0 01-.365.356h-4.456a.36.36 0 01-.365-.356v-2.71a.36.36 0 01.365-.354h4.456a.36.36 0 01.365.354v2.71zM48.906 24.632H34.307a.358.358 0 00-.357.358v49.89c0 .197.161.357.357.357h14.599a.36.36 0 00.359-.357V24.99a.36.36 0 00-.359-.358m-8.684 44.921a.192.192 0 01-.192.192h-3.343a.192.192 0 01-.192-.192v-3.725c0-.106.086-.191.192-.191h3.343c.106 0 .192.085.192.191v3.725zm0-8.555a.19.19 0 01-.192.192h-3.343a.19.19 0 01-.192-.192v-3.724a.19.19 0 01.192-.192h3.343a.19.19 0 01.192.192v3.724zm0-8.553a.192.192 0 01-.192.192h-3.343a.192.192 0 01-.192-.192v-3.726c0-.106.086-.192.192-.192h3.343c.106 0 .192.086.192.192v3.726zm0-8.555a.192.192 0 01-.192.192h-3.343a.192.192 0 01-.192-.192v-3.726a.19.19 0 01.192-.189h3.343a.19.19 0 01.192.189v3.726zm0-8.553a.192.192 0 01-.192.191h-3.343a.192.192 0 01-.192-.191v-3.726c0-.107.086-.192.192-.192h3.343c.106 0 .192.085.192.192v3.726zm6.555 34.216a.192.192 0 01-.193.192h-3.341a.191.191 0 01-.192-.192v-3.725a.19.19 0 01.192-.191h3.341c.107 0 .193.085.193.191v3.725zm0-8.555a.191.191 0 01-.193.192h-3.341a.19.19 0 01-.192-.192v-3.724a.19.19 0 01.192-.192h3.341c.107 0 .193.084.193.192v3.724zm0-8.553a.192.192 0 01-.193.192h-3.341a.191.191 0 01-.192-.192v-3.726c0-.106.085-.192.192-.192h3.341c.107 0 .193.086.193.192v3.726zm0-8.555a.192.192 0 01-.193.192h-3.341a.191.191 0 01-.192-.192v-3.726c0-.106.085-.189.192-.189h3.341a.19.19 0 01.193.189v3.726zm0-8.553a.193.193 0 01-.193.191h-3.341a.191.191 0 01-.192-.191v-3.726a.19.19 0 01.192-.192h3.341c.107 0 .193.085.193.192v3.726zM83.932 58.08a.3.3 0 01-.3.301H68.617a.3.3 0 01-.3-.301v-3.003a.3.3 0 01.3-.3h15.015a.3.3 0 01.3.3v3.003zM66.54 34.053a.385.385 0 00-.367-.279.38.38 0 00-.209.069l-.027.018-.123.155-14.348 18.2-.066.09a.412.412 0 00-.124.284V74.955c0 .197.16.356.358.356h14.584a.356.356 0 00.357-.356V34.202a.388.388 0 00-.035-.149zm-6.041 9.884l.103-.129c.982-1.26 2.636-3.296 3.443-4.285l.106-.126a.408.408 0 01.719.182v4.604c0 .222-.177.4-.396.41-.007 0-.012.004-.018.004s-.011-.004-.018-.004h-3.586c-.007 0-.012.004-.018.004-.006 0-.012-.004-.018-.004a.412.412 0 01-.317-.656zm-2.27 25.49a.356.356 0 01-.357.357h-4.351a.356.356 0 01-.357-.357v-2.723c0-.197.159-.356.357-.356h4.351c.198 0 .357.159.357.356v2.723zm0-5.032a.356.356 0 01-.357.357h-4.351a.356.356 0 01-.357-.357v-2.723c0-.199.159-.357.357-.357h4.351c.198 0 .357.158.357.357v2.723zm0-5.032a.357.357 0 01-.357.356h-4.351a.356.356 0 01-.357-.356v-2.725c0-.198.159-.357.357-.357h4.351c.198 0 .357.159.357.357v2.725zm.012-11.027V54.335a.357.357 0 01-.357.357h-4.35a.357.357 0 01-.359-.357v-.755a.426.426 0 01.027-.134c.007-.015.009-.021.022-.041a1.297 1.297 0 01.073-.105c.556-.796 3.066-3.887 4.12-5.18l.106-.127a.417.417 0 01.321-.152c.2 0 .359.146.398.334v.161zm6.639 21.091a.357.357 0 01-.357.357h-4.35a.357.357 0 01-.359-.357v-2.723c0-.197.16-.356.359-.356h4.35c.195 0 .357.159.357.356v2.723zm0-5.032a.357.357 0 01-.357.357h-4.35a.357.357 0 01-.359-.357v-2.723c0-.199.16-.357.359-.357h4.35c.195 0 .357.158.357.357v2.723zm0-5.032a.358.358 0 01-.357.356h-4.35a.357.357 0 01-.359-.356v-2.725c0-.198.16-.357.359-.357h4.35c.195 0 .357.159.357.357v2.725zm0-5.033a.357.357 0 01-.357.356h-4.35a.357.357 0 01-.359-.356v-2.723c0-.198.16-.357.359-.357h4.35c.195 0 .357.159.357.357v2.723zm0-5.033a.357.357 0 01-.357.357h-4.35a.357.357 0 01-.359-.357v-2.723c0-.199.16-.358.359-.358h4.35c.195 0 .357.159.357.358v2.723z"/></g><g fill="#FFF"><path d="M16.495 61.318h15.043a.37.37 0 00.369-.37.363.363 0 00-.097-.245l-.021-.022-7.484-9.683-.073-.08a.367.367 0 00-.272-.12.375.375 0 00-.242.095l-.045.052-.07.079-7.301 9.581-.112.137a.369.369 0 00.305.576zM31.492 62.684H16.42a.369.369 0 00-.369.369v11.795c0 .204.165.37.369.37h4.851v-7.42c0-.205.164-.369.369-.369h4.503c.204 0 .369.164.369.369v7.42h4.98a.37.37 0 00.369-.37V63.053a.369.369 0 00-.369-.369zM83.583 59.596H68.666a.358.358 0 00-.364.354v15.063a.36.36 0 00.364.354h14.918a.36.36 0 00.365-.354V59.951a.359.359 0 00-.366-.355m-8.162 9.833a.36.36 0 01-.364.357H70.6a.361.361 0 01-.367-.357v-2.708a.36.36 0 01.367-.356h4.457c.202 0 .364.158.364.356v2.708zm0-5.005a.36.36 0 01-.364.356H70.6a.361.361 0 01-.367-.356v-2.71a.36.36 0 01.367-.354h4.457c.202 0 .364.159.364.354v2.71zm6.812 5.005a.36.36 0 01-.365.357h-4.456a.36.36 0 01-.365-.357v-2.708a.36.36 0 01.365-.356h4.456c.203 0 .365.158.365.356v2.708zm0-5.005a.36.36 0 01-.365.356h-4.456a.36.36 0 01-.365-.356v-2.71a.36.36 0 01.365-.354h4.456a.36.36 0 01.365.354v2.71zM48.906 24.632H34.307a.358.358 0 00-.357.358v49.89c0 .197.161.357.357.357h14.599a.36.36 0 00.359-.357V24.99a.36.36 0 00-.359-.358m-8.684 44.921a.192.192 0 01-.192.192h-3.343a.192.192 0 01-.192-.192v-3.725c0-.106.086-.191.192-.191h3.343c.106 0 .192.085.192.191v3.725zm0-8.555a.19.19 0 01-.192.192h-3.343a.19.19 0 01-.192-.192v-3.724a.19.19 0 01.192-.192h3.343a.19.19 0 01.192.192v3.724zm0-8.553a.192.192 0 01-.192.192h-3.343a.192.192 0 01-.192-.192v-3.726c0-.106.086-.192.192-.192h3.343c.106 0 .192.086.192.192v3.726zm0-8.555a.192.192 0 01-.192.192h-3.343a.192.192 0 01-.192-.192v-3.726a.19.19 0 01.192-.189h3.343a.19.19 0 01.192.189v3.726zm0-8.553a.192.192 0 01-.192.191h-3.343a.192.192 0 01-.192-.191v-3.726c0-.107.086-.192.192-.192h3.343c.106 0 .192.085.192.192v3.726zm6.555 34.216a.192.192 0 01-.193.192h-3.341a.191.191 0 01-.192-.192v-3.725a.19.19 0 01.192-.191h3.341c.107 0 .193.085.193.191v3.725zm0-8.555a.191.191 0 01-.193.192h-3.341a.19.19 0 01-.192-.192v-3.724a.19.19 0 01.192-.192h3.341c.107 0 .193.084.193.192v3.724zm0-8.553a.192.192 0 01-.193.192h-3.341a.191.191 0 01-.192-.192v-3.726c0-.106.085-.192.192-.192h3.341c.107 0 .193.086.193.192v3.726zm0-8.555a.192.192 0 01-.193.192h-3.341a.191.191 0 01-.192-.192v-3.726c0-.106.085-.189.192-.189h3.341a.19.19 0 01.193.189v3.726zm0-8.553a.193.193 0 01-.193.191h-3.341a.191.191 0 01-.192-.191v-3.726a.19.19 0 01.192-.192h3.341c.107 0 .193.085.193.192v3.726zM83.932 58.08a.3.3 0 01-.3.301H68.617a.3.3 0 01-.3-.301v-3.003a.3.3 0 01.3-.3h15.015a.3.3 0 01.3.3v3.003zM66.54 34.053a.385.385 0 00-.367-.279.38.38 0 00-.209.069l-.027.018-.123.155-14.348 18.2-.066.09a.412.412 0 00-.124.284V74.955c0 .197.16.356.358.356h14.584a.356.356 0 00.357-.356V34.202a.388.388 0 00-.035-.149zm-6.041 9.884l.103-.129c.982-1.26 2.636-3.296 3.443-4.285l.106-.126a.408.408 0 01.719.182v4.604c0 .222-.177.4-.396.41-.007 0-.012.004-.018.004s-.011-.004-.018-.004h-3.586c-.007 0-.012.004-.018.004-.006 0-.012-.004-.018-.004a.412.412 0 01-.317-.656zm-2.27 25.49a.356.356 0 01-.357.357h-4.351a.356.356 0 01-.357-.357v-2.723c0-.197.159-.356.357-.356h4.351c.198 0 .357.159.357.356v2.723zm0-5.032a.356.356 0 01-.357.357h-4.351a.356.356 0 01-.357-.357v-2.723c0-.199.159-.357.357-.357h4.351c.198 0 .357.158.357.357v2.723zm0-5.032a.357.357 0 01-.357.356h-4.351a.356.356 0 01-.357-.356v-2.725c0-.198.159-.357.357-.357h4.351c.198 0 .357.159.357.357v2.725zm.012-11.027V54.335a.357.357 0 01-.357.357h-4.35a.357.357 0 01-.359-.357v-.755a.426.426 0 01.027-.134c.007-.015.009-.021.022-.041a1.297 1.297 0 01.073-.105c.556-.796 3.066-3.887 4.12-5.18l.106-.127a.417.417 0 01.321-.152c.2 0 .359.146.398.334v.161zm6.639 21.091a.357.357 0 01-.357.357h-4.35a.357.357 0 01-.359-.357v-2.723c0-.197.16-.356.359-.356h4.35c.195 0 .357.159.357.356v2.723zm0-5.032a.357.357 0 01-.357.357h-4.35a.357.357 0 01-.359-.357v-2.723c0-.199.16-.357.359-.357h4.35c.195 0 .357.158.357.357v2.723zm0-5.032a.358.358 0 01-.357.356h-4.35a.357.357 0 01-.359-.356v-2.725c0-.198.16-.357.359-.357h4.35c.195 0 .357.159.357.357v2.725zm0-5.033a.357.357 0 01-.357.356h-4.35a.357.357 0 01-.359-.356v-2.723c0-.198.16-.357.359-.357h4.35c.195 0 .357.159.357.357v2.723zm0-5.033a.357.357 0 01-.357.357h-4.35a.357.357 0 01-.359-.357v-2.723c0-.199.16-.358.359-.358h4.35c.195 0 .357.159.357.358v2.723z"/></g></svg>