<svg xmlns="http://www.w3.org/2000/svg" viewBox="0 0 100 100"><path fill="#E5243B" d="M0 0h100v100H0V0z"/><g fill="#FFF"><path d="M81.505 39.366c1.55 0 2.75-1.231 2.75-2.708 0-1.526-1.25-2.708-2.75-2.708-1.55 0-2.75 1.231-2.75 2.708 0 1.476 1.25 2.708 2.75 2.708zm3.25 1.083h-6.45c-1.9.148-3.35 1.723-3.35 3.594v7.582c0 .591.5 1.034 1.05 1.034s1.05-.492 1.05-1.034v-6.499c0-.246.05-.591.5-.591.3 0 .4.345.4.542v19.449c.05.837.8 1.477 1.65 1.428.8-.049 1.4-.64 1.45-1.428V53.299c0-.098.05-.443.45-.443s.45.295.45.443v11.226c.05.837.8 1.477 1.65 1.428.8-.049 1.4-.64 1.45-1.428V45.076c0-.197.1-.542.4-.542.45.001.55.345.55.592v6.499c0 .591.5 1.034 1.05 1.034.6 0 1.05-.492 1.05-1.034v-7.582c0-1.871-1.45-3.446-3.35-3.594zm-25.1.197c1.45 0 2.6-1.132 2.6-2.56s-1.15-2.56-2.6-2.56-2.6 1.132-2.6 2.56 1.15 2.56 2.6 2.56zm3.15 4.776c.35-.098.45.345.45.345l1.75 5.81s.35 1.231 1.45.935c1.05-.295.7-1.576.7-1.576l-2.2-6.992s-.8-2.019-2.5-2.019h-5.55c-1.7 0-2.5 2.019-2.5 2.019l-2.2 6.993s-.4 1.28.7 1.625 1.45-.935 1.45-.935l1.75-5.86s.1-.443.45-.345.2.542.2.542l-3.05 10.93h2.85v7.829c.05.739.7 1.329 1.45 1.28.7-.049 1.25-.591 1.3-1.28v-7.829h.8v7.829c0 .739.6 1.329 1.35 1.329s1.35-.591 1.35-1.329v-7.829h2.85l-3.05-10.93s-.15-.443.2-.542zm-18.85-4.776c1.45 0 2.6-1.132 2.6-2.56s-1.15-2.56-2.6-2.56c-1.45 0-2.6 1.182-2.6 2.56 0 1.428 1.15 2.56 2.6 2.56zm5.3 3.298s-.8-2.019-2.5-2.019h-5.55c-1.7 0-2.5 2.019-2.5 2.019l-2.2 6.992s-.05.197-.05.443c-.25-.394-.75-.443-1.1-.197-.1.049-.15.148-.2.246-.05.049-1.1 1.822-1.4 2.166-.4.345-.7.295-.7.295h-2.65s-.3.049-.65-.295c-.35-.344-1.35-2.117-1.45-2.216-.2-.345-.7-.443-1.05-.246-.1.049-.2.148-.25.246v-7.336c0-1.871-1.45-3.447-3.35-3.644h-6.45c-1.9.197-3.35 1.773-3.35 3.644v7.582c0 .394.25.739.6.935 0 .049-.05.049-.05.098l-2.5 12.802c-.05.197.1.443.35.492.2.049.45-.098.5-.295l2.45-12.851v-.145c.5-.098.8-.542.8-1.034v-6.499c0-.246.05-.591.5-.591.3 0 .4.345.4.542v19.449c0 .837.7 1.526 1.55 1.526.85 0 1.55-.689 1.55-1.526V53.299c0-.098.05-.443.45-.443s.45.295.45.443v11.226c.05.837.8 1.477 1.65 1.379.75-.049 1.35-.64 1.4-1.379V45.076c0-.197.1-.542.4-.542.45 0 .5.345.5.591v6.499c-.25.542-.05 1.132.5 1.428.55.247 1.15.05 1.45-.492.05-.148.1-.295.1-.443l.05.098 2.2 3.939s.15.295.15.542v.788l-1.2 4.087h1.15v3.447c0 .591.5 1.034 1.05 1.034.6 0 1.05-.492 1.05-1.034V61.57h.65v3.447a1.101 1.101 0 002.2 0V61.57h1.15l-1.15-4.234v-.739c0-.246.15-.542.15-.542l2.05-3.594s.15-.295.2-.492c.1.246.3.443.65.542 1.1.345 1.45-.935 1.45-.935l1.75-5.81s.1-.443.45-.345c.3.098.15.542.15.542l-3.05 10.93h2.85v7.829c0 .739.6 1.329 1.35 1.329s1.35-.591 1.35-1.329v-7.829h.8v7.829c0 .739.6 1.329 1.35 1.329s1.35-.591 1.35-1.329v-7.829h2.85l-3-10.931s-.15-.492.2-.591c.35-.099.45.345.45.345l1.75 5.81s.35 1.231 1.45.935c1.1-.246.7-1.526.7-1.526l-2.2-6.991zm21.85 8.568c1.2 0 2.2-.985 2.2-2.166s-1-2.166-2.2-2.166c-1.2 0-2.2.985-2.2 2.166 0 1.23 1 2.166 2.2 2.166zm5.15 6.106c0-.049-1.35-3.348-1.55-3.791-.5-1.428-1.35-1.428-2.25-1.428h-3.1c-1.15.049-1.5.591-2.75 3.791-.15.443-.75 1.92-.75 2.019-.1.246-.2.788.35 1.034.6.295.95-.295.95-.295l1.2-3.742s.2-.246.2 0v8.764a1.101 1.101 0 002.2 0v-3.447s-.05-.492.35-.492c.4 0 .35.492.35.492v3.447a1.101 1.101 0 002.2 0v-8.765c0-.246.15-.049.15-.049l.95 2.56s.4 1.132.55 1.182c.4.197.9 0 1.1-.443.05-.296.05-.592-.15-.837 0 .049 0 0 0 0zm-55.85-19.252c1.55.049 2.8-1.083 2.9-2.61.05-1.526-1.1-2.757-2.65-2.856h-.25c-1.5.098-2.7 1.379-2.65 2.856.05 1.427 1.2 2.56 2.65 2.61z"/><path d="M31.755 52.512c1.2 0 2.2-.985 2.2-2.166s-1-2.166-2.2-2.166c-1.2 0-2.2.985-2.2 2.166 0 1.23.95 2.166 2.2 2.166z"/></g></svg>