<svg xmlns="http://www.w3.org/2000/svg" viewBox="-49 -49 100 100"><path fill="#A21942" d="M-49-49H51V51H-49V-49z"/><g fill="#FFF"><path d="M19.783-12.4l-9.84 9.7c-.387.35-.581.65-.581 1.45v27.1c0 .3.242.6.582.6h10.179c.291 0 .582-.25.582-.6v-38c-.001-.3-.243-.9-.922-.25M-8.573.2l-9.889 9.7c-.339.35-.533.65-.533 1.45v14.5c0 .3.242.6.582.6h10.179c.291 0 .582-.25.582-.6V.45c-.049-.3-.291-.9-.921-.25"/><path d="M24.291-24.1c0-.15-.097-.3-.291-.3h-.145l-7.513 1.75h-.145c-.048 0-.097.05-.145.1-.097.1-.097.3 0 .4l.097.1 1.745 1.8L.782-2.65l-7.901-8.15a.229.229 0 00-.339 0l-2.133 2.25L-22.242 4.5a.247.247 0 000 .35l2.133 2.2c.097.1.242.1.339 0l12.506-12.9 5.72 5.9V.1L.589 2.3c.097.1.242.1.339 0l19.389-20 1.794 1.85c.097.1.291.1.388 0 .097-.05.097-.15.097-.2L24.292-24l-.001-.1c.001 0 0 0 0 0z"/><path d="M5.678 1.9L.879 6.85c-.097.1-.242.05-.291 0L-3.726 2.3c-.776-.8-.969-.15-.969.2v23.35c0 .3.242.6.582.6H6.065c.291 0 .582-.25.582-.6V2.1c-.047-.35-.291-.9-.969-.2"/></g></svg>