<svg xmlns="http://www.w3.org/2000/svg" viewBox="-49 -49 100 100"><path fill="#26BDE2" d="M-49-49H51V51H-49V-49z"/><path fill="#FFF" d="M18.862-24.35c-.048-.1-.194-.15-.291-.15H-16.62c-.097 0-.242.05-.291.15-.097.1-.145.2-.097.3l5.914 36.85c.048.2.194.35.388.35h7.271l.485 6h-3.054l7.077 7.35 7.126-7.35H5.144l.485-6h7.368c.194 0 .388-.15.388-.35l5.526-36.85c.097-.1.049-.25-.049-.3zM5.29 5.15s-1.6 1.7-4.217 1.5c-2.618.2-4.217-1.5-4.217-1.5-2.618-2.75-1.649-6.1-.728-7.85.582-1.1 4.605-7.35 4.944-7.9v-.05.05c.388.55 4.411 6.8 4.993 7.9.921 1.75 1.842 5.1-.775 7.85zM16.439-16.6c-.969-.45-2.181-.3-3.296.2-4.363 1.85-7.319 2.5-11.924 1-2.908-.95-5.623-2.9-8.774-1.7-2.133.8-4.072 1.55-6.495 1.5l-1.406-7.3h32.913l-1.018 6.3z"/></svg>