<svg xmlns="http://www.w3.org/2000/svg" viewBox="0 0 100 100"><path fill="#F16A2B" d="M0 0h100v100H0z"/><path fill="#FFF" d="M74.988 52.845L63.1 45.984V32.26a.81.81 0 00-.405-.702l-12.29-7.096a.815.815 0 00-.811 0l-12.291 7.096a.81.81 0 00-.405.702v13.725l-11.886 6.86a.81.81 0 00-.405.702v14.194c0 .29.154.557.405.702l12.291 7.095a.815.815 0 00.81 0L50 68.678l11.885 6.861a.815.815 0 00.81 0l12.293-7.095a.81.81 0 00.405-.702V53.547a.806.806 0 00-.405-.702zM49.189 66.337l-9.859-5.693 9.859-5.693v11.386zm11.479-19.884l-9.857 5.69V40.76l9.857 5.693zm-11.479 5.69l-9.858-5.69 9.858-5.693v11.383zm2.433 1.404l10.668-6.158 10.671 6.158-10.671 6.161-10.668-6.161zm9.857-8.499l-9.857-5.692 9.857-5.691v11.383zm-13.101-5.693l-9.858 5.693V33.664l9.858 5.691zm-11.48 34.077l-10.67-6.159V54.952l10.67 6.161v12.319zm1.621 0V62.049l9.858 5.692-9.858 5.691zm35.253-6.159L63.1 73.432V61.113l10.672-6.161v12.321z"/><path fill="#FFF" d="M74.988 52.845L63.1 45.984V32.26a.81.81 0 00-.405-.702l-12.29-7.096a.815.815 0 00-.811 0l-12.291 7.096a.81.81 0 00-.405.702v13.725l-11.886 6.86a.81.81 0 00-.405.702v14.194c0 .29.154.557.405.702l12.291 7.095a.815.815 0 00.81 0L50 68.678l11.885 6.861a.815.815 0 00.81 0l12.293-7.095a.81.81 0 00.405-.702V53.547a.806.806 0 00-.405-.702zM49.189 66.337l-9.859-5.693 9.859-5.693v11.386zm11.479-19.884l-9.857 5.69V40.76l9.857 5.693zm-11.479 5.69l-9.858-5.69 9.858-5.693v11.383zm2.433 1.404l10.668-6.158 10.671 6.158-10.671 6.161-10.668-6.161zm9.857-8.499l-9.857-5.692 9.857-5.691v11.383zm-13.101-5.693l-9.858 5.693V33.664l9.858 5.691zm-11.48 34.077l-10.67-6.159V54.952l10.67 6.161v12.319zm1.621 0V62.049l9.858 5.692-9.858 5.691zm35.253-6.159L63.1 73.432V61.113l10.672-6.161v12.321z"/></svg>