<svg xmlns="http://www.w3.org/2000/svg" viewBox="-49 -49 100 100"><path fill="#4C9F38" d="M-49-49H51V51H-49V-49z"/><path fill="#FFF" d="M34.55 2.35c0-2.8-1.8-5.1-4.55-5.1-1.35 0-3 1.5-3.9 2.4-.9-.9-2.45-2.4-3.85-2.4-2.75 0-4.65 2.3-4.65 5.1 0 1.4.55 2.7 1.45 3.6l7 7 7-7c.95-.95 1.5-2.25 1.5-3.6z"/><path fill="#FFF" d="M4.7 24.45h-.1c-.5-.05-.95-.4-1.05-.95L0 2.75l-5.4 10c-.3.55-1 .75-1.55.45-.35-.15-.55-.45-.6-.85l-2.3-16-4.2 9.45c-.15.4-.6.65-1.05.65h-16.25c-.65 0-1.15-.5-1.15-1.15s.5-1.15 1.15-1.15h15.55l5.5-12.35c.25-.6.95-.85 1.5-.6.35.15.6.5.65.9L-5.8 8.6l5.3-9.85c.3-.55 1-.75 1.55-.5.3.15.55.45.6.85L5 18.3l12-39.9c.2-.6.8-.95 1.45-.75.3.05.55.25.7.55l6.3 13.1c.3.6.05 1.25-.5 1.55-.6.25-1.3.05-1.55-.55l-5.05-10.45L5.8 23.65c-.15.45-.6.8-1.1.8z"/></svg>