<?xml version="1.0" encoding="UTF-8" standalone="no"?>
<!DOCTYPE svg PUBLIC "-//W3C//DTD SVG 1.1//EN" "http://www.w3.org/Graphics/SVG/1.1/DTD/svg11.dtd">
<svg width="100%" height="100%" viewBox="0 0 100 100" version="1.1" xmlns="http://www.w3.org/2000/svg" xmlns:xlink="http://www.w3.org/1999/xlink" xml:space="preserve" xmlns:serif="http://www.serif.com/" style="fill-rule:evenodd;clip-rule:evenodd;stroke-linejoin:round;stroke-miterlimit:2;">
    <g id="_5" transform="matrix(0.1,0,0,0.1,0,0)">
        <rect id="Rectangle" x="0" y="0" width="999.95" height="1000" style="fill:rgb(255,58,33);"/>
        <g id="Group" transform="matrix(1,0,0,1,303,234)">
            <path id="Shape" d="M393.35,0.38L269.07,0.38C268.198,0.391 267.495,1.098 267.49,1.97L267.49,43.26C267.49,44.134 268.196,44.845 269.07,44.85L318.55,44.85L263.6,99.85C235.01,77.31 199.657,65.064 163.25,65.09C73.5,65.09 0.47,138.09 0.47,227.87C0.47,310.51 62.38,378.87 142.24,389.24L142.24,436.83L93.24,436.83C92.818,436.822 92.411,436.984 92.11,437.279C91.809,437.574 91.64,437.978 91.64,438.4L91.64,482.67C91.637,483.093 91.806,483.5 92.107,483.797C92.408,484.095 92.817,484.258 93.24,484.25L142.24,484.25L142.24,531C142.237,531.42 142.403,531.823 142.7,532.12C142.997,532.417 143.4,532.583 143.82,532.58L188.06,532.58C188.482,532.583 188.887,532.418 189.187,532.121C189.487,531.825 189.657,531.422 189.66,531L189.66,484.21L238.66,484.21C239.078,484.21 239.479,484.043 239.774,483.747C240.068,483.45 240.233,483.048 240.23,482.63L240.23,438.36C240.23,437.944 240.065,437.544 239.77,437.25C239.476,436.955 239.076,436.79 238.66,436.79L189.66,436.79L189.66,388.43C266.89,375.76 326,308.59 326,227.83C326.028,194.297 315.64,161.583 296.27,134.21L350.45,80L350.45,126.22C350.461,127.1 351.18,127.806 352.06,127.8L393.35,127.8C394.23,127.806 394.949,127.1 394.96,126.22L394.96,2C394.957,1.576 394.786,1.17 394.484,0.872C394.182,0.573 393.774,0.407 393.35,0.41M163.25,347.65C97.075,347.65 43.43,294.005 43.43,227.83C43.43,161.655 97.075,108.01 163.25,108.01C229.425,108.01 283.07,161.655 283.07,227.83C283.004,293.977 229.397,347.584 163.25,347.65" style="fill:white;fill-rule:nonzero;"/>
            <path id="Path" d="M237.65,178.65L92.32,178.65C91.495,178.616 90.794,179.246 90.74,180.07L90.74,215.25C90.755,215.652 90.931,216.03 91.228,216.301C91.525,216.572 91.919,216.712 92.32,216.69L237.65,216.69C238.056,216.717 238.455,216.58 238.758,216.309C239.061,216.038 239.242,215.656 239.26,215.25L239.26,180.07C239.201,179.236 238.484,178.604 237.65,178.65" style="fill:white;fill-rule:nonzero;"/>
            <path id="Path1" serif:id="Path" d="M237.65,241.47L92.32,241.47C91.481,241.447 90.778,242.101 90.74,242.94L90.74,278.12C90.761,278.518 90.939,278.891 91.235,279.158C91.532,279.424 91.922,279.562 92.32,279.54L237.65,279.54C238.052,279.567 238.449,279.433 238.751,279.166C239.054,278.899 239.237,278.523 239.26,278.12L239.26,242.94C239.217,242.092 238.499,241.436 237.65,241.47" style="fill:white;fill-rule:nonzero;"/>
        </g>
    </g>
</svg>
