<svg xmlns="http://www.w3.org/2000/svg" viewBox="0 0 100 100"><path fill="#0A97D9" d="M.002 0h99.995v100H.002z"/><g fill="#FFF"><path d="M76.956 60.361c-1.259-1.7-9.388-12.064-20.784-12.064-9.897 0-20.484 8.976-20.484 8.976s-3.977-8.14-12.112-8.922c-.048 0-.099-.011-.153-.011h-.05c-.17.009-.329.174-.311.322a.904.904 0 00.127.298c1.049 1.741 3.725 6.694 3.725 11.642 0 4.964-2.692 9.93-3.731 11.663l-.07.11a.328.328 0 00-.051.172c0 .172.133.305.3.32l.088-.007c.027 0 .056 0 .086-.008 8.161-.76 12.152-8.925 12.152-8.925s10.587 8.977 20.484 8.977c11.397 0 19.526-10.365 20.784-12.061l.087-.117a.336.336 0 00.027-.125.323.323 0 00-.027-.124c-.024-.034-.052-.074-.087-.116m-14.447 1.55a3.328 3.328 0 01-3.327-3.328 3.324 3.324 0 013.327-3.324 3.324 3.324 0 013.33 3.324 3.328 3.328 0 01-3.33 3.328M23.319 28.816c-.025-.005-.042-.014-.063-.014a.328.328 0 00-.327.33V31.4c0 .095.036.178.095.235 5.501 4.78 10.71.301 11.916-.882a.304.304 0 01.086-.092.328.328 0 01.18-.059c.085 0 .165.033.221.088a.052.052 0 00.016.014c6.215 5.931 12.731 1.127 14.086 0l.133-.122a.284.284 0 01.124-.025.3.3 0 01.129.025l.134.122c1.355 1.127 7.871 5.931 14.085 0 .001-.003.009-.008.012-.014a.318.318 0 01.221-.088c.067 0 .13.025.18.059.038.022.064.056.092.092 1.204 1.184 6.408 5.663 11.914.882a.33.33 0 00.095-.235v-2.268a.325.325 0 00-.323-.33c-.024 0-.045.009-.07.014a3.086 3.086 0 01-.165.086c-1.692.848-6.94 2.864-11.703-1.643-.045-.042-.092-.084-.138-.132a.35.35 0 00-.139-.03c-.033 0-.069.009-.098.015a.374.374 0 00-.166.129c-1.42 1.082-7.936 5.494-13.739.08l-.085-.083a.361.361 0 00-.235-.098.343.343 0 00-.227.098l-.09.083c-5.8 5.413-12.323 1.002-13.741-.08a.36.36 0 00-.161-.129c-.033-.006-.067-.015-.104-.015a.372.372 0 00-.137.03c-.042.049-.093.09-.14.132-4.763 4.507-10.009 2.491-11.702 1.643-.058-.03-.114-.057-.166-.086M34.941 39.006a.339.339 0 01.267-.151c.085 0 .166.035.223.091.003.005.01.01.015.014 6.213 5.923 12.731 1.122 14.087 0l.133-.127a.331.331 0 01.123-.021c.047 0 .092.005.131.021l.133.127c1.355 1.122 7.871 5.923 14.086 0 .001-.004.007-.009.012-.014a.314.314 0 01.22-.091.33.33 0 01.18.061.358.358 0 01.092.09c1.204 1.185 6.407 5.665 11.914.881a.32.32 0 00.096-.23v-2.274a.325.325 0 00-.325-.326c-.024 0-.045.009-.07.014l-.165.083c-1.691.848-6.941 2.859-11.703-1.641-.044-.042-.091-.085-.138-.131a.263.263 0 00-.14-.032.199.199 0 00-.098.025.279.279 0 00-.166.122c-1.419 1.081-7.936 5.494-13.74.08l-.085-.085a.335.335 0 00-.235-.091.322.322 0 00-.227.091l-.09.085c-5.8 5.414-12.323 1.001-13.741-.08a.271.271 0 00-.161-.122.269.269 0 00-.239.007c-.045.046-.093.088-.141.131-4.763 4.501-10.008 2.49-11.701 1.641l-.167-.083c-.025-.005-.042-.014-.063-.014a.326.326 0 00-.328.326v2.274c0 .094.036.171.095.23 5.501 4.785 10.711.304 11.916-.881"/></g><g fill="#FFF"><path d="M76.956 60.361c-1.259-1.7-9.388-12.064-20.784-12.064-9.897 0-20.484 8.976-20.484 8.976s-3.977-8.14-12.112-8.922c-.048 0-.099-.011-.153-.011h-.05c-.17.009-.329.174-.311.322a.904.904 0 00.127.298c1.049 1.741 3.725 6.694 3.725 11.642 0 4.964-2.692 9.93-3.731 11.663l-.07.11a.328.328 0 00-.051.172c0 .172.133.305.3.32l.088-.007c.027 0 .056 0 .086-.008 8.161-.76 12.152-8.925 12.152-8.925s10.587 8.977 20.484 8.977c11.397 0 19.526-10.365 20.784-12.061l.087-.117a.336.336 0 00.027-.125.323.323 0 00-.027-.124c-.024-.034-.052-.074-.087-.116m-14.447 1.55a3.328 3.328 0 01-3.327-3.328 3.324 3.324 0 013.327-3.324 3.324 3.324 0 013.33 3.324 3.328 3.328 0 01-3.33 3.328M23.319 28.816c-.025-.005-.042-.014-.063-.014a.328.328 0 00-.327.33V31.4c0 .095.036.178.095.235 5.501 4.78 10.71.301 11.916-.882a.304.304 0 01.086-.092.328.328 0 01.18-.059c.085 0 .165.033.221.088a.052.052 0 00.016.014c6.215 5.931 12.731 1.127 14.086 0l.133-.122a.284.284 0 01.124-.025.3.3 0 01.129.025l.134.122c1.355 1.127 7.871 5.931 14.085 0 .001-.003.009-.008.012-.014a.318.318 0 01.221-.088c.067 0 .13.025.18.059.038.022.064.056.092.092 1.204 1.184 6.408 5.663 11.914.882a.33.33 0 00.095-.235v-2.268a.325.325 0 00-.323-.33c-.024 0-.045.009-.07.014a3.086 3.086 0 01-.165.086c-1.692.848-6.94 2.864-11.703-1.643-.045-.042-.092-.084-.138-.132a.35.35 0 00-.139-.03c-.033 0-.069.009-.098.015a.374.374 0 00-.166.129c-1.42 1.082-7.936 5.494-13.739.08l-.085-.083a.361.361 0 00-.235-.098.343.343 0 00-.227.098l-.09.083c-5.8 5.413-12.323 1.002-13.741-.08a.36.36 0 00-.161-.129c-.033-.006-.067-.015-.104-.015a.372.372 0 00-.137.03c-.042.049-.093.09-.14.132-4.763 4.507-10.009 2.491-11.702 1.643-.058-.03-.114-.057-.166-.086M34.941 39.006a.339.339 0 01.267-.151c.085 0 .166.035.223.091.003.005.01.01.015.014 6.213 5.923 12.731 1.122 14.087 0l.133-.127a.331.331 0 01.123-.021c.047 0 .092.005.131.021l.133.127c1.355 1.122 7.871 5.923 14.086 0 .001-.004.007-.009.012-.014a.314.314 0 01.22-.091.33.33 0 01.18.061.358.358 0 01.092.09c1.204 1.185 6.407 5.665 11.914.881a.32.32 0 00.096-.23v-2.274a.325.325 0 00-.325-.326c-.024 0-.045.009-.07.014l-.165.083c-1.691.848-6.941 2.859-11.703-1.641-.044-.042-.091-.085-.138-.131a.263.263 0 00-.14-.032.199.199 0 00-.098.025.279.279 0 00-.166.122c-1.419 1.081-7.936 5.494-13.74.08l-.085-.085a.335.335 0 00-.235-.091.322.322 0 00-.227.091l-.09.085c-5.8 5.414-12.323 1.001-13.741-.08a.271.271 0 00-.161-.122.269.269 0 00-.239.007c-.045.046-.093.088-.141.131-4.763 4.501-10.008 2.49-11.701 1.641l-.167-.083c-.025-.005-.042-.014-.063-.014a.326.326 0 00-.328.326v2.274c0 .094.036.171.095.23 5.501 4.785 10.711.304 11.916-.881"/></g></svg>