<?xml version="1.0" encoding="UTF-8" standalone="no"?>
<!DOCTYPE svg PUBLIC "-//W3C//DTD SVG 1.1//EN" "http://www.w3.org/Graphics/SVG/1.1/DTD/svg11.dtd">
<svg width="100%" height="100%" viewBox="0 0 100 100" version="1.1" xmlns="http://www.w3.org/2000/svg" xmlns:xlink="http://www.w3.org/1999/xlink" xml:space="preserve" xmlns:serif="http://www.serif.com/" style="fill-rule:evenodd;clip-rule:evenodd;stroke-linejoin:round;stroke-miterlimit:2;">
    <g id="_4" transform="matrix(0.1,0,0,0.1,0,0)">
        <rect id="Rectangle" x="0" y="0" width="999.96" height="1000" style="fill:rgb(197,25,45);"/>
        <g id="Group" transform="matrix(1,0,0,1,220,271)">
            <path id="Path" d="M218.3,134.19L38.96,30.63L38.96,365.63L218.3,419.74L218.3,134.19Z" style="fill:white;fill-rule:nonzero;"/>
            <path id="Path1" serif:id="Path" d="M238.03,134.87L238.03,419.86L418.53,365.59L418.53,30.64L238.03,134.87Z" style="fill:white;fill-rule:nonzero;"/>
            <path id="Path2" serif:id="Path" d="M559.32,22.15C559.487,14.461 555.48,7.283 548.848,3.39C542.215,-0.504 533.995,-0.504 527.362,3.39C520.73,7.283 516.723,14.461 516.89,22.15L516.89,45L559.32,45L559.32,22.15Z" style="fill:white;fill-rule:nonzero;"/>
            <path id="Path3" serif:id="Path" d="M522.16,359.69L516.89,359.69L538.12,433.85L559.31,359.69L554.04,359.69L559.31,359.69L559.31,61.64L516.88,61.64L516.88,359.69L522.16,359.69Z" style="fill:white;fill-rule:nonzero;"/>
            <path id="Path4" serif:id="Path" d="M457.06,45.02L437.83,29.83L437.83,374.72L238.56,439.11L218.3,439.11L19.92,383.68L19.92,29.83L0.68,45.02L0.68,397.17L217.39,457.17L239.46,457.17L439.4,393.69L457.06,388.49L457.06,45.02Z" style="fill:white;fill-rule:nonzero;"/>
        </g>
    </g>
</svg>
