<?xml version="1.0" encoding="UTF-8" standalone="no"?>
<!DOCTYPE svg PUBLIC "-//W3C//DTD SVG 1.1//EN" "http://www.w3.org/Graphics/SVG/1.1/DTD/svg11.dtd">
<svg width="100%" height="100%" viewBox="0 0 100 100" version="1.1" xmlns="http://www.w3.org/2000/svg" xmlns:xlink="http://www.w3.org/1999/xlink" xml:space="preserve" xmlns:serif="http://www.serif.com/" style="fill-rule:evenodd;clip-rule:evenodd;stroke-linejoin:round;stroke-miterlimit:2;">
    <g id="_16" transform="matrix(0.1,0,0,0.1,0,0)">
        <rect id="Rectangle" x="0.3" y="0.15" width="998.811" height="998.851" style="fill:rgb(0,104,157);"/>
        <g id="Group" transform="matrix(1,0,0,1,295,298)">
            <path id="Path" d="M350.789,3.996C350.789,3.996 342.388,15.155 344.795,26.034C347.203,36.913 359.66,43.377 359.66,43.377C359.66,43.377 368.062,32.218 365.654,21.349C363.247,10.48 350.789,3.996 350.789,3.996" style="fill:white;fill-rule:nonzero;"/>
            <path id="Path1" serif:id="Path" d="M337.093,67.772C337.093,67.772 345.495,56.603 343.087,45.734C340.679,34.865 328.232,28.392 328.232,28.392C328.232,28.392 319.82,39.55 322.238,50.43C324.655,61.309 337.103,67.772 337.103,67.772" style="fill:white;fill-rule:nonzero;"/>
            <path id="Path2" serif:id="Path" d="M371.628,55.824C371.628,55.824 380.5,64.815 390.609,63.876C400.719,62.937 408.202,52.577 408.202,52.577C408.202,52.577 399.341,43.586 389.221,44.515C379.101,45.445 371.628,55.824 371.628,55.824" style="fill:white;fill-rule:nonzero;"/>
            <path id="Path3" serif:id="Path" d="M386.174,7.992C377.952,16.334 379.111,31.099 379.111,31.099C379.111,31.099 393.606,32.358 401.848,24.026C410.09,15.694 408.911,0.919 408.911,0.919C408.911,0.919 394.406,-0.34 386.174,7.992" style="fill:white;fill-rule:nonzero;"/>
            <path id="Path4" serif:id="Path" d="M368.032,89.001C378.102,90.2 387.572,81.548 387.572,81.548C387.572,81.548 380.709,70.929 370.629,69.78C360.549,68.631 351.079,77.243 351.079,77.243C351.079,77.243 357.942,87.812 368.012,89.001" style="fill:white;fill-rule:nonzero;"/>
            <path id="Path5" serif:id="Path" d="M377.023,263.966L301.748,263.966C295.867,263.966 291.099,268.734 291.099,274.615C291.099,280.497 295.867,285.265 301.748,285.265L377.023,285.265C382.904,285.265 387.672,280.497 387.672,274.615C387.672,268.734 382.904,263.966 377.023,263.966" style="fill:white;fill-rule:nonzero;"/>
            <path id="Path6" serif:id="Path" d="M377.023,381.359L301.748,381.359C295.867,381.359 291.099,386.127 291.099,392.008C291.099,397.889 295.867,402.657 301.748,402.657L377.023,402.657C382.904,402.657 387.672,397.889 387.672,392.008C387.672,386.127 382.904,381.359 377.023,381.359" style="fill:white;fill-rule:nonzero;"/>
            <path id="Path7" serif:id="Path" d="M38.472,238.112C36.755,237.571 35.011,237.124 33.247,236.773C33.247,236.773 35.175,237.373 38.472,238.112" style="fill:white;fill-rule:nonzero;"/>
            <path id="Shape" d="M374.256,292.707L304.496,292.707C301.15,292.707 298.437,295.416 298.432,298.761L298.432,319.89L252.897,324.885L186.374,323.367L186.374,282.717C195.315,281.581 204.161,279.784 212.837,277.343C276.883,259.281 290.849,206.334 289.451,169.7C288.062,132.388 300,117.902 317.153,111.459C321.761,109.755 326.521,108.494 331.369,107.692C331.558,116.853 333.367,127.512 337.512,140.2C339.041,140.12 340.509,139.99 342.058,139.83C337.732,126.843 335.884,116.164 335.784,107.053C340.82,106.417 345.904,106.263 350.969,106.593C345.845,103.615 341.006,100.171 336.513,96.304C339.391,78.641 349.92,67.792 360.759,56.693C366.753,50.589 372.877,44.286 377.742,36.773L373.966,34.336C369.371,41.469 363.347,47.612 357.542,53.556C346.973,64.376 336.294,75.425 332.677,92.967C328.816,89.484 325.144,85.795 321.678,81.918C305.884,64.216 285.554,77.213 256.573,104.206C227.592,131.199 191.099,132.108 155.475,95.664C108.521,47.552 67.483,47.832 39.371,50.559C58.601,58.751 65.345,76.723 75.065,122.398C85.265,170.35 111.029,192.008 146.184,194.995C126.613,201.918 125.644,212.977 99.421,231.079C78.931,245.205 50.12,240.739 38.482,238.072C59.92,244.765 85.325,267.253 108.052,275.035C121.461,279.606 135.394,282.462 149.52,283.536L149.52,322.438L30.34,319.72L30.34,346.853L252.907,341.758L298.442,346.753L298.442,367.862C298.447,371.211 301.157,373.925 304.505,373.936L374.266,373.936C377.616,373.925 380.329,371.212 380.34,367.862L380.34,298.761C380.329,295.411 377.606,292.702 374.256,292.707ZM160.47,284.196C165.465,284.276 170.41,284.126 175.395,283.786L175.395,323.117L160.47,322.777L160.47,284.196Z" style="fill:white;fill-rule:nonzero;"/>
            <path id="Path8" serif:id="Path" d="M23.816,342.458C23.816,348.182 19.82,352.817 14.905,352.817L9.54,352.817C4.625,352.817 0.619,348.182 0.619,342.458L0.619,323.676C0.619,317.952 4.615,313.317 9.54,313.317L14.905,313.317C19.82,313.317 23.816,317.952 23.816,323.676L23.816,342.458Z" style="fill:white;fill-rule:nonzero;"/>
        </g>
    </g>
</svg>
