<svg xmlns="http://www.w3.org/2000/svg" viewBox="0 0 100 100"><path fill="#BF8B2E" d="M0 0h100v100H0z"/><path fill="#FFF" d="M75.846 37.468c-4.417-3.488-10.268-3.56-12.41-3.05l-.249.058c-2.475.584-6.406 1.552-11.007 7.261-.025.032-.052.064-.076.097l-.058.07a.383.383 0 00-.076.222c0 .069.017.132.05.191l.107.176a86.811 86.811 0 011.921 3.355c.006.012.012.021.017.035a.396.396 0 00.351.216.39.39 0 00.272-.11 1.92 1.92 0 00.084-.117c4.084-5.648 7.296-6.428 9.468-6.939l.26-.061c1.128-.271 5.414-.254 8.51 2.189 2.415 1.907 3.641 4.941 3.641 9.017 0 6.838-3.326 9.513-6.117 10.552-4.323 1.616-8.469-.544-8.5-.561l-.186-.09c-2.375-1.031-5.919-3.176-9.26-9.885C45.855 36.573 40.224 35.3 36.497 34.456l-.199-.044c-1.697-.385-7.589-.657-12.221 3.04-2.42 1.93-5.303 5.684-5.303 12.599 0 4.213.865 6.995 3.09 9.922.488.667 5.474 7.072 15.113 5.225 1.543-.296 3.633-1.032 5.932-2.755l2.122 1.914a.349.349 0 00.487-.024.325.325 0 00.085-.23v-.029l1.531-9.414.001-.104a.339.339 0 00-.339-.336l-.065.006-.1.01-9.018 2.524-.164.027a.311.311 0 00-.172.101.342.342 0 00.025.489l.106.098 2.021 1.825c-1.305.845-2.442 1.232-3.31 1.401-6.974 1.33-10.418-3.237-10.549-3.416l-.049-.067c-1.62-2.128-2.168-3.935-2.168-7.165 0-4.088 1.204-7.124 3.579-9.021 3.016-2.407 7.176-2.421 8.351-2.153l.203.046c3.054.691 7.238 1.637 13 13.213 2.993 6.01 6.742 9.939 11.46 12.011.601.306 3.465 1.665 7.183 1.665 1.555 0 3.258-.237 5.004-.887 2.735-1.021 9.096-4.508 9.096-14.846-.001-6.913-2.928-10.674-5.383-12.613"/><path fill="none" stroke="#FFF" stroke-width=".73" stroke-miterlimit="10" d="M75.846 37.468c-4.417-3.488-10.268-3.56-12.41-3.05l-.249.058c-2.475.584-6.406 1.552-11.007 7.261-.025.032-.052.064-.076.097l-.058.07a.383.383 0 00-.076.222c0 .069.017.132.05.191l.107.176a86.811 86.811 0 011.921 3.355c.006.012.012.021.017.035a.396.396 0 00.351.216.39.39 0 00.272-.11 1.92 1.92 0 00.084-.117c4.084-5.648 7.296-6.428 9.468-6.939l.26-.061c1.128-.271 5.414-.254 8.51 2.189 2.415 1.907 3.641 4.941 3.641 9.017 0 6.838-3.326 9.513-6.117 10.552-4.323 1.616-8.469-.544-8.5-.561l-.186-.09c-2.375-1.031-5.919-3.176-9.26-9.885C45.855 36.573 40.224 35.3 36.497 34.456l-.199-.044c-1.697-.385-7.589-.657-12.221 3.04-2.42 1.93-5.303 5.684-5.303 12.599 0 4.213.865 6.995 3.09 9.922.488.667 5.474 7.072 15.113 5.225 1.543-.296 3.633-1.032 5.932-2.755l2.122 1.914a.349.349 0 00.487-.024.325.325 0 00.085-.23v-.029l1.531-9.414.001-.104a.339.339 0 00-.339-.336l-.065.006-.1.01-9.018 2.524-.164.027a.311.311 0 00-.172.101.342.342 0 00.025.489l.106.098 2.021 1.825c-1.305.845-2.442 1.232-3.31 1.401-6.974 1.33-10.418-3.237-10.549-3.416l-.049-.067c-1.62-2.128-2.168-3.935-2.168-7.165 0-4.088 1.204-7.124 3.579-9.021 3.016-2.407 7.176-2.421 8.351-2.153l.203.046c3.054.691 7.238 1.637 13 13.213 2.993 6.01 6.742 9.939 11.46 12.011.601.306 3.465 1.665 7.183 1.665 1.555 0 3.258-.237 5.004-.887 2.735-1.021 9.096-4.508 9.096-14.846-.001-6.913-2.928-10.674-5.383-12.613"/><path fill="#FFF" d="M75.846 37.468c-4.417-3.488-10.268-3.56-12.41-3.05l-.249.058c-2.475.584-6.406 1.552-11.007 7.261-.025.032-.052.064-.076.097l-.058.07a.383.383 0 00-.076.222c0 .069.017.132.05.191l.107.176a86.811 86.811 0 011.921 3.355c.006.012.012.021.017.035a.396.396 0 00.351.216.39.39 0 00.272-.11 1.92 1.92 0 00.084-.117c4.084-5.648 7.296-6.428 9.468-6.939l.26-.061c1.128-.271 5.414-.254 8.51 2.189 2.415 1.907 3.641 4.941 3.641 9.017 0 6.838-3.326 9.513-6.117 10.552-4.323 1.616-8.469-.544-8.5-.561l-.186-.09c-2.375-1.031-5.919-3.176-9.26-9.885C45.855 36.573 40.224 35.3 36.497 34.456l-.199-.044c-1.697-.385-7.589-.657-12.221 3.04-2.42 1.93-5.303 5.684-5.303 12.599 0 4.213.865 6.995 3.09 9.922.488.667 5.474 7.072 15.113 5.225 1.543-.296 3.633-1.032 5.932-2.755l2.122 1.914a.349.349 0 00.487-.024.325.325 0 00.085-.23v-.029l1.531-9.414.001-.104a.339.339 0 00-.339-.336l-.065.006-.1.01-9.018 2.524-.164.027a.311.311 0 00-.172.101.342.342 0 00.025.489l.106.098 2.021 1.825c-1.305.845-2.442 1.232-3.31 1.401-6.974 1.33-10.418-3.237-10.549-3.416l-.049-.067c-1.62-2.128-2.168-3.935-2.168-7.165 0-4.088 1.204-7.124 3.579-9.021 3.016-2.407 7.176-2.421 8.351-2.153l.203.046c3.054.691 7.238 1.637 13 13.213 2.993 6.01 6.742 9.939 11.46 12.011.601.306 3.465 1.665 7.183 1.665 1.555 0 3.258-.237 5.004-.887 2.735-1.021 9.096-4.508 9.096-14.846-.001-6.913-2.928-10.674-5.383-12.613"/><path fill="#FFF" d="M75.987 37.29c-3.804-3.004-8.367-3.329-10.152-3.329-.941 0-1.812.084-2.451.236l-.25.058c-2.41.569-6.443 1.522-11.138 7.348l-.137.171a.608.608 0 00-.118.353c0 .106.027.208.083.309l.106.175a84.28 84.28 0 011.932 3.378.62.62 0 001.004.14c.033-.043.066-.089.088-.123 4.056-5.609 7.234-6.356 9.337-6.851l.26-.062c.29-.069.759-.11 1.288-.11.978 0 4.377.163 7.028 2.256 2.359 1.862 3.555 4.836 3.555 8.839 0 6.709-3.246 9.326-5.97 10.34a9.481 9.481 0 01-3.329.585c-2.804 0-4.964-1.122-4.992-1.138l-.195-.095c-2.343-1.017-5.841-3.137-9.147-9.778C46.01 36.38 40.316 35.09 36.544 34.236l-.198-.044c-.289-.066-1.104-.218-2.43-.218-2.184 0-6.384.429-9.983 3.302-2.458 1.96-5.388 5.768-5.388 12.776 0 4.269.879 7.09 3.134 10.056.424.579 4.352 5.651 11.895 5.651 1.118 0 2.277-.113 3.445-.337 1.377-.264 3.502-.944 5.875-2.685l1.983 1.789a.594.594 0 00.805-.037.53.53 0 00.143-.377l1.534-9.448.001-.11a.56.56 0 00-.184-.412c-.102-.096-.216-.168-.402-.147l-9.199 2.543-.175.028a.567.567 0 00-.254.978l1.906 1.724c-1.002.614-2.003 1.021-2.978 1.21-.83.158-1.651.238-2.44.238-5.212 0-7.776-3.421-7.883-3.566l-.051-.07c-1.586-2.083-2.121-3.856-2.121-7.028 0-4.016 1.176-6.992 3.494-8.843 2.58-2.058 5.899-2.218 6.856-2.218.523 0 .998.04 1.304.109l.203.046c3.01.681 7.132 1.614 12.846 13.092 3.018 6.059 6.803 10.023 11.56 12.112.553.282 3.503 1.689 7.286 1.689 1.765 0 3.476-.303 5.084-.901 2.779-1.037 9.243-4.581 9.243-15.059 0-7.001-2.974-10.819-5.468-12.789z"/></svg>