<svg xmlns="http://www.w3.org/2000/svg" viewBox="0 0 100 100"><path fill="#FAC315" d="M0 0h100v100H0V0z"/><g fill="#FFF"><path d="M49.996 34.619c-8.568 0-15.513 6.946-15.513 15.514 0 8.572 6.946 15.516 15.513 15.516S65.51 58.705 65.51 50.133c0-8.568-6.946-15.514-15.514-15.514m-1.148 6.129c0-.516.518-1.085 1.155-1.085.635 0 1.149.569 1.149 1.085v5.327c0 .514-.514 1.077-1.149 1.077-.637 0-1.155-.563-1.155-1.077v-5.327zm1.151 17.336a8.071 8.071 0 01-2.398-15.776v3.004a5.28 5.28 0 002.398 9.985 5.282 5.282 0 005.282-5.282 5.276 5.276 0 00-2.898-4.71v-3.001a8.07 8.07 0 01-2.384 15.78M32.187 49.998c0-.703-.623-1.273-1.192-1.273h-6.794c-.573 0-1.202.57-1.202 1.273 0 .705.629 1.278 1.202 1.278h6.794c.569 0 1.192-.573 1.192-1.278M77.001 49.998c0-.703-.623-1.273-1.192-1.273h-6.794c-.572 0-1.201.57-1.201 1.273 0 .705.629 1.278 1.201 1.278h6.794c.569 0 1.192-.573 1.192-1.278M50.003 32.187c.702 0 1.273-.623 1.273-1.192V24.2c0-.573-.57-1.201-1.273-1.201-.705 0-1.279.628-1.279 1.201v6.795c0 .569.574 1.192 1.279 1.192M50.003 77c.702 0 1.273-.623 1.273-1.192v-6.793c0-.572-.57-1.202-1.273-1.202-.705 0-1.279.63-1.279 1.202v6.793c0 .569.574 1.192 1.279 1.192M34.541 41.15c.35-.611.092-1.415-.402-1.697l-5.897-3.374c-.497-.285-1.326-.103-1.675.507-.35.612-.089 1.422.409 1.707l5.897 3.374c.493.283 1.318.095 1.668-.517M73.435 63.41c.349-.61.091-1.414-.402-1.697l-5.896-3.374c-.497-.285-1.327-.102-1.675.509-.35.611-.089 1.422.408 1.706l5.897 3.374c.493.281 1.318.094 1.668-.518M58.851 34.542c.61.349 1.413.091 1.697-.402l3.374-5.897c.285-.498.103-1.327-.507-1.676-.612-.351-1.422-.089-1.707.409l-3.374 5.896c-.284.494-.096 1.32.517 1.67M36.591 73.435c.61.349 1.414.091 1.697-.403l3.374-5.896c.285-.497.102-1.327-.508-1.676-.611-.35-1.422-.089-1.706.408l-3.374 5.897c-.283.494-.095 1.32.517 1.67M41.122 34.557c.61-.351.793-1.175.509-1.668l-3.387-5.89c-.287-.497-1.093-.757-1.703-.406-.612.351-.795 1.182-.508 1.679l3.386 5.889c.286.493 1.091.748 1.703.396M63.462 73.405c.61-.351.793-1.175.51-1.668l-3.387-5.89c-.287-.497-1.093-.757-1.704-.407-.611.351-.795 1.182-.507 1.679l3.386 5.889c.283.494 1.09.749 1.702.397M65.443 41.122c.35.609 1.174.793 1.668.509L73 38.245c.497-.286.759-1.093.409-1.703-.352-.611-1.182-.795-1.679-.509l-5.89 3.387c-.494.283-.749 1.092-.397 1.702M26.595 63.462c.35.609 1.174.793 1.668.509l5.889-3.387c.497-.285.759-1.093.407-1.702-.35-.612-1.182-.795-1.678-.509l-5.889 3.387c-.494.283-.748 1.091-.397 1.702"/></g></svg>