<svg xmlns="http://www.w3.org/2000/svg" viewBox="0 0 100 100"><path fill="#3F7E44" d="M0 0h100v100H0z"/><path fill="#FFF" d="M86.709 49.588c-2.634-3.695-14.552-18.449-36.706-18.449-22.157 0-34.071 14.754-36.71 18.449a28.54 28.54 0 00-.288.411c.079.119.175.255.288.415 2.639 3.694 14.553 18.448 36.71 18.448 22.153 0 34.071-14.754 36.706-18.448.115-.16.21-.296.286-.415a9.658 9.658 0 00-.286-.411m-49.064-9.12c.2-.293.863-1.13.944-1.236.171-.22.509-.265.747-.307.235-.046.549.087.586.264.041.177-.091.863-.207.981-.325.337-1.171.813-1.637.738-.361-.054-.502-.334-.433-.44m-.792 1.574c.035-.042.067-.076.08-.093.279-.317.833-.385 1.217-.445.384-.066.896.128.958.383.066.254-.963.72-1.151.894-.533.491-1.367 1.491-1.855 1.599a.585.585 0 01-.399-.042c.321-.8.705-1.57 1.15-2.296m8.291 17.008c-.3 1.18-.65 1.605-.949 1.977-.298.377-1.403.857-2.104.805-.702-.053-.8-1.926-.8-2.889 0-.333-.471.654-.717-1.351-.157-1.284-.981.134-1.039-.722-.059-.854-.47-.684-.904-1.218-.43-.533-.967.052-1.569.322-.598.266-.352.406-1.203.138-.022-.007-.033-.013-.054-.021a15.38 15.38 0 01-1.213-6.006c0-.521.028-1.033.076-1.54a.92.92 0 01.095-.144c.816-.966.798-1.192.798-1.192l.903-.313s1.442.222 2.528.631c.895.336 2.304 1.094 3.123.76.592-.244 1.056-.568 1-1.061-.067-.619-.554-.766-1.144-.349-.218.153-.682-.933-1.045-.877-.363.054.45 1.276.141 1.328-.31.053-.931-1.274-1.037-1.489-.104-.213-.584-.746-1.015-.34-.91.865-2.389.812-2.685 1.034-.904.676-1.142-.222-1.122-.77.036-.125.073-.251.113-.375.295-.325 1.354-.433 1.717-.191.399.267.686-.069.842-.231.158-.158.103-.414.003-.627-.101-.215.2-.371.406-.427.208-.055.896-.536 1.17-.697.277-.159 1.704-.333 2.344-.013.639.322 1.226.059 1.54-.311.394-.468.896-.825 1.119-.933.224-.105-.55-.827-1.187-.039-.638.784-.963.857-1.263.857-.3 0-2.082-.444-2.301-1.008-.217-.562.557-.983 1.215-1.302.657-.313 2.457-.309 2.917-.413.935-.205 2.131-.675 2.733-.265.6.403-2.515 1.112-1.491 1.665.364.2 2.011-.947 2.575-1.241 1.327-.684-1.287-.911-.948-2.302.384-1.573-3.207-.965-4.996-.831a15.352 15.352 0 018.311-2.432c7.281 0 13.38 5.044 15.007 11.826.011.335-.041.577-.075.714-.14.556-1.195 1.034-1.807.139-.156-.226-.818-.851-.796.218.021 1.07 1.04 1.179.053 1.821-.986.642-1.166.487-1.622.649-.455.161-.896 1.263-.787 1.852.11.589 1.517 2.198.473 2.132-.245-.018-2.089-1.277-2.394-2.088-.321-.853-.672-1.687-.921-2.33-.252-.641-.902-.804-1.454-.427-.549.376.154.751-.242 1.555-.393.803-.676 1.519-1.256.856-1.506-1.726-3.695-.875-4.039-2.795-.185-1.041-1.082-.941-1.832-1.531-.754-.586-1.173-.905-1.3-.481-.112.373 2.359 2.331 2.535 2.833.262.745-.74 1.403-1.473 1.58-.73.175-1.052-.411-1.771-1.161-.719-.747-1.034-1.283-1.083-.695-.072.849.683 2.096 1.415 2.562.624.396 1.324.575 1.122 1.216-.203.644-.004.28-.703.972-.701.696-.834.919-.784 1.88.05.964-.2 1.019-.351 1.82-.147.804-.495.111-.798 1.286m16.557-6.154c.519-.042 1.298.677.993.953-.303.274-1.081.173-1.472-.132-.388-.302.245-.802.479-.821m-.657-.474c-.166-.062-.313-.22-.439-.599s.193-.595.504-.443c.317.161.728.633.728.886s-.623.223-.793.156m-6.811-.027c-.305.271-1.085.172-1.475-.133-.388-.302.246-.803.478-.821.519-.046 1.299.679.997.954m-6.303 3.064c-.212.347-.793 2.943-1.182 2.641-.391-.303.158-3.01.271-3.216.609-1.118 1.927-1.063.911.575m2.099 10.059c-1.508 0-2.962-.22-4.338-.621a.635.635 0 01-.187-.754c.478-1.245 1.9-1.733 3.022-1.841 2.503-.244 5.792 1.625 6.315 1.323.525-.301 1.583-1.677 3.135-1.619 1.06.041 1.052.218 1.407.353a15.367 15.367 0 01-9.354 3.159m10.884-4.492a2.587 2.587 0 01-.485-.179c-.842-.429-.742.256-1.155.105-.417-.154.467-1.116-.777-.303-1.239.811-.904-.125-1.445-1.499-.546-1.375.622-2.943 1.597-3.298 1.341-.485 2.173-.584 2.802-.739 1.854-.463 2.246-1.563 2.582-.894l.181.357c.108.2.232.605.239 1.005a15.46 15.46 0 01-3.539 5.445m4.228-7.791c-.414-.113-2.147-2.509-.777-4.085.228-.259-.46-1.022-.272-1.037.75-.058 1.148.407 1.345 1.077a15.578 15.578 0 01-.296 4.045"/><path fill="#FFF" d="M86.709 49.588c-2.634-3.695-14.552-18.449-36.706-18.449-22.157 0-34.071 14.754-36.71 18.449a28.54 28.54 0 00-.288.411c.079.119.175.255.288.415 2.639 3.694 14.553 18.448 36.71 18.448 22.153 0 34.071-14.754 36.706-18.448.115-.16.21-.296.286-.415a9.658 9.658 0 00-.286-.411m-49.064-9.12c.2-.293.863-1.13.944-1.236.171-.22.509-.265.747-.307.235-.046.549.087.586.264.041.177-.091.863-.207.981-.325.337-1.171.813-1.637.738-.361-.054-.502-.334-.433-.44m-.792 1.574c.035-.042.067-.076.08-.093.279-.317.833-.385 1.217-.445.384-.066.896.128.958.383.066.254-.963.72-1.151.894-.533.491-1.367 1.491-1.855 1.599a.585.585 0 01-.399-.042c.321-.8.705-1.57 1.15-2.296m8.291 17.008c-.3 1.18-.65 1.605-.949 1.977-.298.377-1.403.857-2.104.805-.702-.053-.8-1.926-.8-2.889 0-.333-.471.654-.717-1.351-.157-1.284-.981.134-1.039-.722-.059-.854-.47-.684-.904-1.218-.43-.533-.967.052-1.569.322-.598.266-.352.406-1.203.138-.022-.007-.033-.013-.054-.021a15.38 15.38 0 01-1.213-6.006c0-.521.028-1.033.076-1.54a.92.92 0 01.095-.144c.816-.966.798-1.192.798-1.192l.903-.313s1.442.222 2.528.631c.895.336 2.304 1.094 3.123.76.592-.244 1.056-.568 1-1.061-.067-.619-.554-.766-1.144-.349-.218.153-.682-.933-1.045-.877-.363.054.45 1.276.141 1.328-.31.053-.931-1.274-1.037-1.489-.104-.213-.584-.746-1.015-.34-.91.865-2.389.812-2.685 1.034-.904.676-1.142-.222-1.122-.77.036-.125.073-.251.113-.375.295-.325 1.354-.433 1.717-.191.399.267.686-.069.842-.231.158-.158.103-.414.003-.627-.101-.215.2-.371.406-.427.208-.055.896-.536 1.17-.697.277-.159 1.704-.333 2.344-.013.639.322 1.226.059 1.54-.311.394-.468.896-.825 1.119-.933.224-.105-.55-.827-1.187-.039-.638.784-.963.857-1.263.857-.3 0-2.082-.444-2.301-1.008-.217-.562.557-.983 1.215-1.302.657-.313 2.457-.309 2.917-.413.935-.205 2.131-.675 2.733-.265.6.403-2.515 1.112-1.491 1.665.364.2 2.011-.947 2.575-1.241 1.327-.684-1.287-.911-.948-2.302.384-1.573-3.207-.965-4.996-.831a15.352 15.352 0 018.311-2.432c7.281 0 13.38 5.044 15.007 11.826.011.335-.041.577-.075.714-.14.556-1.195 1.034-1.807.139-.156-.226-.818-.851-.796.218.021 1.07 1.04 1.179.053 1.821-.986.642-1.166.487-1.622.649-.455.161-.896 1.263-.787 1.852.11.589 1.517 2.198.473 2.132-.245-.018-2.089-1.277-2.394-2.088-.321-.853-.672-1.687-.921-2.33-.252-.641-.902-.804-1.454-.427-.549.376.154.751-.242 1.555-.393.803-.676 1.519-1.256.856-1.506-1.726-3.695-.875-4.039-2.795-.185-1.041-1.082-.941-1.832-1.531-.754-.586-1.173-.905-1.3-.481-.112.373 2.359 2.331 2.535 2.833.262.745-.74 1.403-1.473 1.58-.73.175-1.052-.411-1.771-1.161-.719-.747-1.034-1.283-1.083-.695-.072.849.683 2.096 1.415 2.562.624.396 1.324.575 1.122 1.216-.203.644-.004.28-.703.972-.701.696-.834.919-.784 1.88.05.964-.2 1.019-.351 1.82-.147.804-.495.111-.798 1.286m16.557-6.154c.519-.042 1.298.677.993.953-.303.274-1.081.173-1.472-.132-.388-.302.245-.802.479-.821m-.657-.474c-.166-.062-.313-.22-.439-.599s.193-.595.504-.443c.317.161.728.633.728.886s-.623.223-.793.156m-6.811-.027c-.305.271-1.085.172-1.475-.133-.388-.302.246-.803.478-.821.519-.046 1.299.679.997.954m-6.303 3.064c-.212.347-.793 2.943-1.182 2.641-.391-.303.158-3.01.271-3.216.609-1.118 1.927-1.063.911.575m2.099 10.059c-1.508 0-2.962-.22-4.338-.621a.635.635 0 01-.187-.754c.478-1.245 1.9-1.733 3.022-1.841 2.503-.244 5.792 1.625 6.315 1.323.525-.301 1.583-1.677 3.135-1.619 1.06.041 1.052.218 1.407.353a15.367 15.367 0 01-9.354 3.159m10.884-4.492a2.587 2.587 0 01-.485-.179c-.842-.429-.742.256-1.155.105-.417-.154.467-1.116-.777-.303-1.239.811-.904-.125-1.445-1.499-.546-1.375.622-2.943 1.597-3.298 1.341-.485 2.173-.584 2.802-.739 1.854-.463 2.246-1.563 2.582-.894l.181.357c.108.2.232.605.239 1.005a15.46 15.46 0 01-3.539 5.445m4.228-7.791c-.414-.113-2.147-2.509-.777-4.085.228-.259-.46-1.022-.272-1.037.75-.058 1.148.407 1.345 1.077a15.578 15.578 0 01-.296 4.045"/></svg>