<svg xmlns="http://www.w3.org/2000/svg" viewBox="0 0 100 100"><path fill="#DDA63A" d="M0 0h100v100H0V0z"/><path fill="#FFF" d="M41.314 70.853v1.45c0 .35.3.6.65.65h16.55c.35 0 .65-.3.65-.65v-1.6c9.3-3.05 16.25-10.55 17.75-19.75v-.05c.1-.35-.15-.7-.5-.75h-52.7c-.35 0-.65.3-.65.65l.05.3c1.6 9.3 8.75 16.85 18.2 19.75m17.85-43.15c-.2.3-5.3 7.65.1 13.55 2.5 2.7 2.25 5.1 1.55 6.7h3.45c.75-2.35.45-5.35-2.35-8.45-4-4.35.05-10.25.1-10.3.5-.65.2-1.55-.55-1.95-.8-.4-1.8-.2-2.3.45m-8.8 20.3h3.45c.75-2.4.45-5.4-2.35-8.5-4-4.35.05-10.25.1-10.35.45-.65.2-1.5-.6-1.9s-1.8-.2-2.3.5c-.2.25-5.25 7.6.15 13.5 2.5 2.7 2.25 5.1 1.55 6.75m-12.1-20.3c-.25.3-5.3 7.65.1 13.55 2.5 2.7 2.25 5.1 1.55 6.7h3.45c.7-2.35.45-5.35-2.4-8.45-3.95-4.35.05-10.25.1-10.35.5-.65.25-1.5-.55-1.9-.75-.4-1.8-.2-2.25.45"/></svg>