<svg xmlns="http://www.w3.org/2000/svg" viewBox="0 0 100 100"><path fill="#56C02B" d="M0 0h100v100H0z"/><g fill="#FFF"><path d="M41.919 53.855a.22.22 0 01.22.221v7.281a.219.219 0 01-.22.221h-2.947a.22.22 0 01-.221-.221v-7.281c0-.122.099-.221.221-.221h2.947zM74.28 64.706H25.719a.227.227 0 00-.222.228v2.968a.22.22 0 00.222.218H74.28c.12 0 .223-.098.223-.218v-2.968a.229.229 0 00-.223-.228M74.28 70.605H25.719a.221.221 0 00-.222.218V73.8c0 .119.101.219.222.219H74.28c.12 0 .223-.1.223-.219v-2.977a.222.222 0 00-.223-.218M65.039 45.795c-.607-.475-2.226-1.583-4.201-1.583-1.412 0-2.725.556-3.9 1.657a.419.419 0 00-.13.305v.265c0 .13.043.252.138.332.106.08.216.11.342.08a.645.645 0 00.334-.177c.255-.171.95-.405 1.945-.405 1.029 0 3.05.275 5.003 2.097l.045.04a.587.587 0 00.833.004l.039-.041c1.964-1.825 3.982-2.1 5.011-2.1 1.002 0 1.694.234 1.95.405.07.069.155.124.268.164a.597.597 0 00.285.009.416.416 0 00.306-.4v-.234a.418.418 0 00-.13-.3c-1.186-1.13-2.513-1.702-3.947-1.702-1.955-.001-3.567 1.09-4.191 1.584M62.026 26.442a.404.404 0 00-.212.256l-.049.162a.418.418 0 00.064.365.4.4 0 00.3.164c.022.003.044.008.061.003a.535.535 0 00.235-.06c.043-.009.133-.033.294-.033.217 0 2.175.066 3.469 2.266l.016.031c.07.127.18.215.311.249a.513.513 0 00.4-.037l.032-.015a4.839 4.839 0 012.166-.536c1.227 0 2.028.5 2.214.709a.563.563 0 00.163.181c.041.024.114.06.158.076a.52.52 0 00.072.01c.013.003.029.003.044.003.066 0 .13-.016.192-.048a.41.41 0 00.206-.249l.041-.143a.374.374 0 00.017-.118.393.393 0 00-.056-.208c-.943-1.638-2.312-1.98-3.294-1.98a5.19 5.19 0 00-1.748.328c-.445-.598-1.569-1.835-3.275-1.835-.6-.002-1.211.152-1.821.459M51.765 33.912l.014.218a.404.404 0 00.194.327c.096.06.218.081.326.049a.491.491 0 00.281-.177c.206-.149.871-.421 1.852-.421.943 0 2.378.252 3.84 1.452l.034.035c.104.09.238.141.374.141h.036a.567.567 0 00.381-.183l.033-.037c1.618-1.713 3.362-1.967 4.257-1.967.638 0 1.09.132 1.266.231a.564.564 0 00.43.143.521.521 0 00.102-.024.414.414 0 00.276-.418l-.011-.19a.413.413 0 00-.146-.289c-.966-.813-2.009-1.222-3.106-1.222-1.708 0-3.071 1.009-3.635 1.503-.516-.352-1.77-1.075-3.24-1.075-1.292 0-2.45.537-3.445 1.592a.436.436 0 00-.113.312M27.191 37.811a5.264 5.264 0 015.264-5.264c.114 0 .225.01.337.016.277-3.68 3.344-6.582 7.095-6.582a7.124 7.124 0 017.124 7.123 7.085 7.085 0 01-.72 3.104c3.565.79 6.234 3.964 6.234 7.766a7.96 7.96 0 01-7.96 7.96c-.321 0-10.623-.062-10.623-.062a5.636 5.636 0 01-5.637-5.636c0-1.496.586-2.85 1.537-3.859a5.262 5.262 0 01-2.651-4.566z"/></g><g fill="#FFF"><path d="M41.919 53.855a.22.22 0 01.22.221v7.281a.219.219 0 01-.22.221h-2.947a.22.22 0 01-.221-.221v-7.281c0-.122.099-.221.221-.221h2.947zM74.28 64.706H25.719a.227.227 0 00-.222.228v2.968a.22.22 0 00.222.218H74.28c.12 0 .223-.098.223-.218v-2.968a.229.229 0 00-.223-.228M74.28 70.605H25.719a.221.221 0 00-.222.218V73.8c0 .119.101.219.222.219H74.28c.12 0 .223-.1.223-.219v-2.977a.222.222 0 00-.223-.218M65.039 45.795c-.607-.475-2.226-1.583-4.201-1.583-1.412 0-2.725.556-3.9 1.657a.419.419 0 00-.13.305v.265c0 .13.043.252.138.332.106.08.216.11.342.08a.645.645 0 00.334-.177c.255-.171.95-.405 1.945-.405 1.029 0 3.05.275 5.003 2.097l.045.04a.587.587 0 00.833.004l.039-.041c1.964-1.825 3.982-2.1 5.011-2.1 1.002 0 1.694.234 1.95.405.07.069.155.124.268.164a.597.597 0 00.285.009.416.416 0 00.306-.4v-.234a.418.418 0 00-.13-.3c-1.186-1.13-2.513-1.702-3.947-1.702-1.955-.001-3.567 1.09-4.191 1.584M62.026 26.442a.404.404 0 00-.212.256l-.049.162a.418.418 0 00.064.365.4.4 0 00.3.164c.022.003.044.008.061.003a.535.535 0 00.235-.06c.043-.009.133-.033.294-.033.217 0 2.175.066 3.469 2.266l.016.031c.07.127.18.215.311.249a.513.513 0 00.4-.037l.032-.015a4.839 4.839 0 012.166-.536c1.227 0 2.028.5 2.214.709a.563.563 0 00.163.181c.041.024.114.06.158.076a.52.52 0 00.072.01c.013.003.029.003.044.003.066 0 .13-.016.192-.048a.41.41 0 00.206-.249l.041-.143a.374.374 0 00.017-.118.393.393 0 00-.056-.208c-.943-1.638-2.312-1.98-3.294-1.98a5.19 5.19 0 00-1.748.328c-.445-.598-1.569-1.835-3.275-1.835-.6-.002-1.211.152-1.821.459M51.765 33.912l.014.218a.404.404 0 00.194.327c.096.06.218.081.326.049a.491.491 0 00.281-.177c.206-.149.871-.421 1.852-.421.943 0 2.378.252 3.84 1.452l.034.035c.104.09.238.141.374.141h.036a.567.567 0 00.381-.183l.033-.037c1.618-1.713 3.362-1.967 4.257-1.967.638 0 1.09.132 1.266.231a.564.564 0 00.43.143.521.521 0 00.102-.024.414.414 0 00.276-.418l-.011-.19a.413.413 0 00-.146-.289c-.966-.813-2.009-1.222-3.106-1.222-1.708 0-3.071 1.009-3.635 1.503-.516-.352-1.77-1.075-3.24-1.075-1.292 0-2.45.537-3.445 1.592a.436.436 0 00-.113.312M27.191 37.811a5.264 5.264 0 015.264-5.264c.114 0 .225.01.337.016.277-3.68 3.344-6.582 7.095-6.582a7.124 7.124 0 017.124 7.123 7.085 7.085 0 01-.72 3.104c3.565.79 6.234 3.964 6.234 7.766a7.96 7.96 0 01-7.96 7.96c-.321 0-10.623-.062-10.623-.062a5.636 5.636 0 01-5.637-5.636c0-1.496.586-2.85 1.537-3.859a5.262 5.262 0 01-2.651-4.566z"/></g></svg>