<svg width="586" height="569" viewBox="0 0 586 569" fill="none" xmlns="http://www.w3.org/2000/svg">
<path fill-rule="evenodd" clip-rule="evenodd" d="M184 18V41H402V18C402 8.05887 410.059 0 420 0C429.941 0 438 8.05887 438 18V41H526C559.137 41 586 67.8629 586 101V509C586 542.137 559.137 569 526 569H60C26.8629 569 0 542.137 0 509V101C0 67.8629 26.8629 41 60 41H148V18C148 8.05887 156.059 0 166 0C175.941 0 184 8.05887 184 18ZM60 77H526C539.255 77 550 87.7452 550 101V192H36V101C36 87.7452 46.7452 77 60 77ZM36 228V509C36 522.255 46.7452 533 60 533H526C539.255 533 550 522.255 550 509V228H36Z" fill="black"/>
</svg>
