<?xml version="1.0" encoding="utf-8"?>
<svg width="32" height="33" viewBox="0 0 32 33" fill="none" xmlns="http://www.w3.org/2000/svg">
  <defs/>
  <path d="M12.5227 6.42801C12.5793 6.5695 12.7133 6.65737 12.8578 6.65737C12.8965 6.65737 12.9337 6.6529 12.968 6.63801C13.6918 6.41312 14.4469 6.26418 15.2333 6.20313C15.4239 6.18823 15.5728 6.03483 15.5728 5.8442V0.799973C15.5728 0.597422 15.409 0.433594 15.2109 0.433594H15.1916C13.7052 0.509551 12.2709 0.788058 10.9171 1.24231C10.722 1.30784 10.6237 1.52826 10.6967 1.7189L12.5196 6.42836L12.5227 6.42801Z" style="fill: rgb(0, 0, 0);"/>
  <path d="M19.0238 6.6408C19.0625 6.65272 19.0998 6.66016 19.134 6.66016C19.2785 6.66016 19.4155 6.57229 19.4691 6.43081L21.2951 1.72134C21.371 1.5307 21.2727 1.31029 21.0747 1.24475C19.7208 0.790503 18.2881 0.511984 16.7972 0.436035H16.7778C16.5797 0.436035 16.4159 0.599863 16.4159 0.802414V6.18635C17.3199 6.22507 18.1927 6.38145 19.0193 6.6406L19.0238 6.6408Z" style="fill: rgb(0, 0, 0);"/>
  <path d="M20.4459 7.20088C21.14 7.53599 21.7923 7.94852 22.3865 8.42812C22.455 8.48173 22.5355 8.51152 22.6189 8.51152C22.7187 8.51152 22.814 8.4728 22.8825 8.39387L26.2797 4.66903C26.4167 4.51712 26.4048 4.27587 26.2499 4.1433C25.1403 3.21692 23.9087 2.43947 22.5742 1.84076C22.528 1.81842 22.4744 1.81097 22.4297 1.81097C22.2853 1.81097 22.1438 1.89885 22.0872 2.04331L20.2643 6.74363C20.1958 6.92235 20.2762 7.11746 20.4475 7.20085L20.4459 7.20088Z" style="fill: rgb(0, 0, 0);"/>
  <path d="M23.5037 9.47056C24.019 10.0276 24.4718 10.6442 24.8575 11.3084C24.926 11.4261 25.0482 11.4946 25.1733 11.4946C25.2269 11.4946 25.2805 11.4827 25.3341 11.4559L29.8484 9.20696C30.0316 9.11611 30.1075 8.88675 30.0092 8.70803C29.3078 7.43466 28.438 6.27148 27.4282 5.23785C27.3597 5.16487 27.2644 5.13062 27.172 5.13062C27.0722 5.13062 26.9739 5.17231 26.901 5.24827L23.4993 8.97757C23.3697 9.11905 23.3772 9.32905 23.5067 9.46906L23.5037 9.47056Z" style="fill: rgb(0, 0, 0);"/>
  <path d="M25.5172 12.6801C25.7913 13.3741 25.9894 14.1054 26.104 14.8649C26.1309 15.0437 26.2828 15.1777 26.463 15.1777H26.4972L31.5148 14.713C31.7203 14.6936 31.8692 14.5075 31.8424 14.3049C31.6518 12.8484 31.2661 11.4573 30.7105 10.1525C30.6539 10.0155 30.5154 9.93506 30.3754 9.93506C30.3218 9.93506 30.2652 9.94697 30.2116 9.97378L25.6901 12.2227C25.5218 12.3061 25.4503 12.5042 25.5188 12.6844L25.5172 12.6801Z" style="fill: rgb(0, 0, 0);"/>
  <path d="M31.9794 15.8988C31.9675 15.7037 31.8082 15.5562 31.6175 15.5562H31.5833L26.223 16.0522C26.2304 16.1698 26.2423 16.292 26.2423 16.4111C26.2423 17.1692 26.1545 17.9094 25.9951 18.6183C25.9534 18.809 26.0606 18.9951 26.2468 19.0487L31.0886 20.4294L31.1884 20.4443C31.3522 20.4443 31.5011 20.334 31.5428 20.1702C31.8362 18.9653 32 17.7113 32 16.4141C32 16.2428 31.9926 16.0715 31.9852 15.9033L31.9794 15.8988Z" style="fill: rgb(0, 0, 0);"/>
  <path d="M30.8356 21.2366L25.9862 19.856L25.8864 19.8411C25.7375 19.8411 25.6049 19.9319 25.5469 20.0779C25.2758 20.7749 24.9332 21.4347 24.5252 22.0498C24.4179 22.2106 24.4492 22.4266 24.6056 22.5413L28.6238 25.5765C28.6893 25.6257 28.7683 25.6495 28.8442 25.6495C28.9589 25.6495 29.0736 25.5959 29.1421 25.4976C29.9464 24.3344 30.6016 23.061 31.0782 21.7042C31.1467 21.5062 31.0321 21.2932 30.831 21.2351L30.8356 21.2366Z" style="fill: rgb(0, 0, 0);"/>
  <path d="M24.0798 23.207C24.0142 23.1579 23.9383 23.134 23.8668 23.134C23.767 23.134 23.6642 23.1757 23.5928 23.2562C23.0968 23.8013 22.5487 24.2928 21.95 24.7247C21.7936 24.8349 21.7475 25.0493 21.8472 25.2131L24.5012 29.5025C24.5698 29.6127 24.6919 29.6782 24.814 29.6782C24.8825 29.6782 24.9555 29.6588 25.0166 29.6171C26.1901 28.8129 27.2506 27.8597 28.1695 26.777C28.3035 26.6161 28.2767 26.3763 28.1084 26.2512L24.0826 23.213L24.0798 23.207Z" style="fill: rgb(0, 0, 0);"/>
  <path d="M21.1178 25.651C21.0492 25.5408 20.9346 25.4827 20.8124 25.4827C20.7558 25.4827 20.6978 25.4976 20.6412 25.5244C19.9933 25.8565 19.3112 26.1186 18.5903 26.3063C18.4042 26.3554 18.285 26.5356 18.3193 26.7218L19.2457 31.6737C19.2799 31.8495 19.4318 31.9716 19.6046 31.9716L19.685 31.9642C21.085 31.632 22.4105 31.1212 23.6392 30.454C23.8224 30.3542 23.879 30.1189 23.7732 29.9432L21.1162 25.6493L21.1178 25.651Z" style="fill: rgb(0, 0, 0);"/>
  <path d="M17.1323 26.5862H17.0861C16.7272 26.6324 16.3653 26.6592 15.9959 26.6592C15.6266 26.6592 15.2632 26.6324 14.9057 26.5862H14.8596C14.6838 26.5862 14.5319 26.7038 14.5006 26.8796L13.5742 31.8361C13.5355 32.0387 13.674 32.2368 13.8796 32.2636C14.5736 32.3589 15.2796 32.4125 15.9959 32.4125C16.7123 32.4125 17.4183 32.3589 18.1123 32.268C18.3178 32.2412 18.4548 32.0431 18.4176 31.8406L17.4912 26.8841C17.457 26.7083 17.3051 26.5862 17.1323 26.5862Z" style="fill: rgb(0, 0, 0);"/>
  <path d="M13.4 26.3034C12.6837 26.1172 11.9971 25.8491 11.3522 25.5214C11.2986 25.4946 11.2375 25.4797 11.1809 25.4797C11.0588 25.4797 10.9441 25.5408 10.8756 25.648L8.21859 29.9419C8.10838 30.1177 8.16944 30.353 8.35263 30.4527C9.57986 31.1244 10.9068 31.6353 12.3068 31.9629L12.3872 31.9704C12.5585 31.9704 12.7119 31.8482 12.7462 31.6725L13.6725 26.7205C13.7068 26.5344 13.5891 26.3542 13.4059 26.305L13.4 26.3034Z" style="fill: rgb(0, 0, 0);"/>
  <path d="M10.0445 24.7291C9.44277 24.2986 8.89321 23.8057 8.40171 23.2606C8.32873 23.1801 8.23043 23.1384 8.12767 23.1384C8.05171 23.1384 7.97874 23.1608 7.9147 23.2114L3.88885 26.2497C3.72055 26.3748 3.69374 26.6161 3.82778 26.7754C4.74673 27.8537 5.80712 28.8113 6.98071 29.6126C7.04177 29.6543 7.11475 29.6737 7.18326 29.6737C7.30539 29.6737 7.42751 29.6126 7.49602 29.4979L10.15 25.2086C10.2528 25.0448 10.2036 24.8348 10.0473 24.7201L10.0445 24.7291Z" style="fill: rgb(0, 0, 0);"/>
  <path d="M7.46779 22.0525C7.05971 21.4389 6.71714 20.7791 6.44609 20.0776C6.3895 19.9332 6.25546 19.8408 6.10653 19.8408L6.00674 19.8557L1.15735 21.2363C0.954797 21.2929 0.841609 21.5074 0.910116 21.7055C1.38671 23.0667 2.03902 24.3402 2.84625 25.5033C2.91476 25.6031 3.02944 25.6552 3.14412 25.6552C3.22008 25.6552 3.3005 25.6329 3.36454 25.5822L7.38734 22.547C7.53925 22.4293 7.5735 22.2148 7.46776 22.0555L7.46779 22.0525Z" style="fill: rgb(0, 0, 0);"/>
  <path d="M5.74753 19.0469C5.93369 18.9933 6.04093 18.8072 5.99923 18.6165C5.83837 17.9076 5.75199 17.1674 5.75199 16.4123C5.75199 16.2902 5.76391 16.1725 5.77136 16.0504L0.411059 15.5544H0.376804C0.186168 15.5544 0.0253174 15.7034 0.0148934 15.897C0.00744681 16.0683 0 16.2395 0 16.4123C0 17.708 0.163828 18.9591 0.457221 20.164C0.498924 20.3278 0.647857 20.438 0.811685 20.438L0.911471 20.4231L5.75324 19.0469L5.74753 19.0469Z" style="fill: rgb(0, 0, 0);"/>
  <path d="M0.482846 14.7089L5.4958 15.1736H5.53006C5.70878 15.1736 5.85772 15.044 5.88899 14.8608C6.00367 14.1027 6.20175 13.37 6.47581 12.6759C6.54432 12.5002 6.47581 12.3021 6.30453 12.2142L1.78303 9.96536C1.72941 9.93855 1.6758 9.92664 1.6192 9.92664C1.47772 9.92664 1.34516 10.0071 1.2841 10.1441C0.727101 11.4488 0.345829 12.8398 0.152181 14.2965C0.125373 14.4991 0.277284 14.6852 0.479839 14.7046L0.482846 14.7089Z" style="fill: rgb(0, 0, 0);"/>
  <path d="M2.1495 9.20253L6.66375 11.4514C6.7129 11.4782 6.77099 11.4901 6.8246 11.4901C6.94971 11.4901 7.07184 11.4216 7.14034 11.304C7.52161 10.6412 7.97586 10.0261 8.49416 9.46613C8.62373 9.32911 8.6282 9.11465 8.50161 8.97464L5.1044 5.24534C5.03142 5.16492 4.93313 5.12769 4.83334 5.12769C4.74249 5.12769 4.64717 5.16194 4.57717 5.23492C3.56741 6.26851 2.69762 7.43169 1.99615 8.7051C1.89637 8.88382 1.96935 9.11317 2.15701 9.20403L2.1495 9.20253Z" style="fill: rgb(0, 0, 0);"/>
  <path d="M9.11486 8.39078C9.18784 8.46674 9.28315 8.50844 9.37847 8.50844C9.4589 8.50844 9.5423 8.48163 9.61081 8.42503C10.2051 7.94844 10.8574 7.53739 11.5514 7.1978C11.7227 7.11439 11.8031 6.91929 11.7346 6.74058L9.91166 2.03568C9.85507 1.89122 9.71656 1.80334 9.56911 1.80334C9.51996 1.80334 9.46932 1.81526 9.42464 1.83313C8.09019 2.43482 6.85849 3.21375 5.74896 4.13567C5.59257 4.26971 5.57768 4.50949 5.7147 4.65843L9.11191 8.38326L9.11486 8.39078Z" style="fill: rgb(0, 0, 0);"/>
  <ellipse style="fill: rgb(255, 255, 255);" cx="16" cy="16.5" rx="13" ry="13"/>
</svg>