<svg width="33" height="29" viewBox="0 0 33 29" fill="none" xmlns="http://www.w3.org/2000/svg">
<path d="M12.5 20L23.7 12.8L12.5 5.6V20ZM10.1 28.8V25.6H3.7C2.82 25.6 2.06667 25.2867 1.44 24.66C0.813333 24.0333 0.5 23.28 0.5 22.4V3.2C0.5 2.32 0.813333 1.56667 1.44 0.94C2.06667 0.313333 2.82 0 3.7 0H29.3C30.18 0 30.9333 0.313333 31.56 0.94C32.1867 1.56667 32.5 2.32 32.5 3.2V22.4C32.5 23.28 32.1867 24.0333 31.56 24.66C30.9333 25.2867 30.18 25.6 29.3 25.6H22.9V28.8H10.1ZM3.7 22.4H29.3V3.2H3.7V22.4Z" fill="black"/>
</svg>
