<svg width="50" height="26" viewBox="0 0 50 26" fill="none" xmlns="http://www.w3.org/2000/svg">
<path d="M5.13461 18.3083C5.13461 19.6075 4.35216 20.198 2.65439 20.198C0.912332 20.198 0.129883 19.5632 0.129883 18.3083V2.76269C0.129883 1.37495 0.794227 0.784424 2.30007 0.784424C3.67305 0.784424 4.16023 1.09445 4.47026 2.29027C4.54408 2.52648 4.66218 2.64459 4.78029 2.64459C4.89839 2.64459 4.97221 2.6003 5.25271 2.33456C6.24185 1.37495 7.89532 0.784424 9.59309 0.784424C10.6265 0.784424 11.1285 1.33066 11.1285 2.40838C11.1285 4.88859 10.656 5.80391 9.4307 5.80391C6.43377 5.80391 5.0165 7.42786 5.13461 10.6905V18.3083ZM18.0376 18.2198C18.0376 19.5632 17.2552 20.198 15.5574 20.198C13.8154 20.198 13.0329 19.5632 13.0329 18.2198V2.76269C13.0329 1.37495 13.6973 0.784424 15.2031 0.784424C16.5908 0.784424 17.0633 1.09445 17.3733 2.29027C17.4471 2.52648 17.5652 2.64459 17.6833 2.64459C17.8014 2.64459 17.8752 2.6003 18.1557 2.33456C19.1892 1.3159 20.7541 0.799187 22.688 0.799187C26.6298 0.799187 28.6081 2.89556 28.6081 7.07355V18.2345C28.6081 19.578 27.8256 20.2128 26.1279 20.2128C24.3858 20.2128 23.6034 19.578 23.6034 18.2345V8.54986C23.6034 6.33539 22.8947 5.22815 21.3889 5.22815C20.5621 5.22815 19.573 5.65628 18.8644 6.33539C18.2296 6.92591 18.0376 7.44263 18.0376 8.57939V18.2198ZM36.6688 14.7061C36.1964 14.7061 36.0044 14.898 36.0044 15.2966C36.0044 19.2089 38.5732 21.6153 42.7955 21.6153C44.3014 21.6153 45.32 21.3791 47.1802 20.6262C47.815 20.3899 48.0807 20.3161 48.3612 20.3161C49.0256 20.3161 49.5128 20.9067 49.5128 21.822C49.5128 24.1841 46.2796 26 41.9835 26C34.9563 26 31.0145 21.4972 31.0145 13.4955C30.985 5.55294 34.7643 0.784424 41.0387 0.784424C46.3977 0.784424 50 4.81478 50 10.8086C50 13.8056 49.2175 14.7209 46.5749 14.7209H36.6688V14.7061ZM44.5523 10.7201C45.0248 10.7201 45.1872 10.5281 45.1872 10.0114C45.1872 6.37967 43.6075 4.41617 40.773 4.41617C37.9679 4.41617 36.0783 6.77828 36.0783 10.1738C36.0783 10.5281 36.3145 10.7201 36.7131 10.7201H44.5523Z" fill="black"/>
</svg>
