<svg width="32" height="18" viewBox="0 0 32 18" fill="none" xmlns="http://www.w3.org/2000/svg">
<path d="M2.69147 13.0316C2.69147 13.7381 2.26824 14.058 1.35565 14.058C0.423228 14.058 0 13.7181 0 13.0316V4.61356C0 3.8604 0.357099 3.54048 1.16388 3.54048C1.91114 3.54048 2.16243 3.7071 2.32775 4.35362C2.36743 4.48025 2.43356 4.54691 2.49308 4.54691C2.55921 4.54691 2.59888 4.52024 2.74437 4.38028C3.2734 3.86707 4.16615 3.54714 5.07874 3.54714C5.62761 3.54714 5.90535 3.84041 5.90535 4.42693C5.90535 5.77328 5.65406 6.2665 4.99277 6.2665C3.37921 6.2665 2.61872 7.14629 2.68485 8.91254V13.0316H2.69147ZM6.91052 1.62093C6.91052 0.894436 7.34036 0.547852 8.25295 0.547852C9.19198 0.547852 9.6086 0.894436 9.6086 1.62093V3.1539C9.6086 3.47383 9.7144 3.58047 10.0318 3.58047H10.7526C11.4734 3.58047 11.8173 3.98704 11.8173 4.86016C11.8173 5.7133 11.4734 6.12653 10.7526 6.12653H10.0318C9.74086 6.12653 9.6086 6.25317 9.6086 6.5531V9.759C9.6086 11.212 10.0781 11.9185 11.0304 11.9185C11.2618 11.9185 11.4999 11.8918 12.1347 11.8318C12.2009 11.8052 12.2604 11.8052 12.3464 11.8052C12.8159 11.8052 13.0209 12.0385 13.0209 12.5983C13.0209 13.6448 12.1083 14.2246 10.4947 14.2246C8.12069 14.2246 6.91052 12.665 6.91052 9.60571C6.91052 9.60571 6.91052 1.62093 6.91052 1.62093ZM18.8998 5.06012C19.3296 3.82041 19.647 3.52715 20.5133 3.52715C21.3201 3.52715 21.7433 3.84707 21.7433 4.44693C21.7433 4.60023 21.7169 4.66021 21.6375 4.92015L18.8138 12.5917C18.384 13.7647 18.0533 14.0647 17.2003 14.0647C16.3538 14.0647 16.0099 13.7714 15.5867 12.5917L12.7696 4.91349C12.6836 4.7002 12.6638 4.59356 12.6638 4.44026C12.6638 3.84041 13.0936 3.52048 13.8938 3.52048C14.7667 3.52048 15.0577 3.81374 15.4809 5.05345L16.9027 9.17914C16.9688 9.34577 17.0548 9.43242 17.1936 9.43242C17.3193 9.43242 17.4251 9.34577 17.4714 9.17914L18.8998 5.06012ZM24.8184 11.092C24.5671 11.092 24.4613 11.1987 24.4613 11.4119C24.4613 13.5314 25.8434 14.8378 28.1116 14.8378C28.9184 14.8378 29.4672 14.7112 30.4658 14.3046C30.8097 14.178 30.9485 14.138 31.1006 14.138C31.4577 14.138 31.7223 14.4579 31.7223 14.9511C31.7223 16.2308 29.9831 17.2172 27.6751 17.2172C23.8992 17.2172 21.7764 14.7778 21.7764 10.4388C21.7764 6.13986 23.8132 3.55381 27.1792 3.55381C30.0624 3.55381 32 5.73996 32 8.98585C32 10.6121 31.5768 11.1054 30.1616 11.1054H24.8184V11.092ZM29.0572 8.93253C29.3085 8.93253 29.4011 8.82589 29.4011 8.54596C29.4011 6.57976 28.5547 5.51334 27.0271 5.51334C25.5193 5.51334 24.5009 6.79304 24.5009 8.6326C24.5009 8.82589 24.6266 8.92587 24.8448 8.92587C24.8448 8.93253 29.0572 8.93253 29.0572 8.93253Z" fill="black"/>
</svg>
