<svg width="32" height="19" viewBox="0 0 32 19" fill="none" xmlns="http://www.w3.org/2000/svg">
<path d="M30.1609 16.3323L32.0001 16.8245V18.4306L27.7517 18.6378L27.389 16.41C26.7155 17.1699 25.9729 17.7484 25.1612 18.1456C24.3495 18.5428 23.5379 18.7414 22.7262 18.7414C21.6209 18.7414 20.7142 18.3874 20.0062 17.6793C19.3154 16.9713 18.97 15.9869 18.97 14.7262C18.97 13.31 19.419 12.2998 20.317 11.6953C21.2151 11.0736 22.5448 10.7627 24.3064 10.7627H27.0523V9.07892C27.0523 8.24996 26.8364 7.64551 26.4047 7.26558C25.9902 6.88564 25.3771 6.69567 24.5654 6.69567C23.8574 6.69567 23.0629 6.8252 22.1822 7.08424L21.9231 9.0012H19.9284L19.7212 5.37452C21.9836 4.71827 23.8746 4.39014 25.3944 4.39014C28.572 4.39014 30.1609 5.7631 30.1609 8.50901V16.3323ZM23.866 16.4618C24.3323 16.4618 24.8417 16.3236 25.3944 16.0473C25.9643 15.771 26.5169 15.3911 27.0523 14.9075V12.5502H24.7986C23.7969 12.5502 23.0975 12.7056 22.7003 13.0165C22.3031 13.31 22.1045 13.785 22.1045 14.4412C22.1045 15.1147 22.2599 15.6242 22.5707 15.9696C22.8989 16.2977 23.3306 16.4618 23.866 16.4618Z" fill="black"/>
<path d="M10.9317 0.219727L16.6049 16.3585L18.2628 16.8506V18.4567H11.0613V16.8506L13.0559 16.3325L12.1234 13.483H5.59533L4.58504 16.3585L6.63152 16.8506V18.4567H-0.00012207V16.8506L1.68369 16.3585L7.69362 0.323347L10.9317 0.219727ZM11.5016 11.2552L9.06658 3.14698L6.29476 11.2552H11.5016Z" fill="black"/>
</svg>
