<svg width="51" height="32" viewBox="0 0 51 32" fill="none" xmlns="http://www.w3.org/2000/svg">
<path d="M8.6875 17.7079C8.6875 20.464 9.56127 21.8574 11.3029 21.8574C11.7011 21.8574 12.2123 21.8143 12.771 21.7341C13.1693 21.6909 13.4843 21.6539 13.7993 21.6539C14.6315 21.6539 15.0654 22.1472 15.0654 23.1337C15.0654 25.1869 13.4011 26.2967 10.3518 26.2967C5.9176 26.2967 3.65889 23.3002 3.65889 17.4181V11.5422C3.65889 10.9688 3.42113 10.7222 2.86833 10.7222H2.58897C1.24563 10.7222 0.609619 9.94528 0.609619 8.29904C0.609619 6.6158 1.24563 5.83276 2.58897 5.83276H2.86833C3.42113 5.83276 3.65889 5.58613 3.65889 5.01272V2.05318C3.65889 0.65973 4.44944 0 6.11375 0C7.89695 0 8.6875 0.65973 8.6875 2.05318V5.01272C8.6875 5.62929 8.88365 5.83276 9.47805 5.83276H10.8273C12.1766 5.83276 12.8067 6.6158 12.8067 8.21888C12.8067 9.94528 12.2123 10.7283 10.8273 10.7283H9.47805C8.92526 10.7283 8.6875 10.975 8.6875 11.5484V17.7079ZM26.038 8.66898C26.8286 6.28285 27.423 5.70944 29.0516 5.70944C30.5554 5.70944 31.3519 6.32601 31.3519 7.479C31.3519 7.76879 31.3103 7.8921 31.1558 8.38536L25.8894 23.1337C25.0989 25.3965 24.4628 25.9699 22.8758 25.9699C21.2888 25.9699 20.6587 25.3965 19.8681 23.1337L14.6018 8.38536C14.4413 7.97225 14.4056 7.76879 14.4056 7.479C14.4056 6.32601 15.1962 5.70944 16.7059 5.70944C18.3286 5.70944 18.8874 6.28285 19.6779 8.66898L22.3349 16.5981C22.4538 16.9249 22.6143 17.0913 22.8877 17.0913C23.1254 17.0913 23.3216 16.9249 23.4048 16.5981L26.038 8.66898ZM37.0938 20.2543C36.6183 20.2543 36.4222 20.4578 36.4222 20.8709C36.4222 24.9403 38.9959 27.4435 43.234 27.4435C44.7378 27.4435 45.7661 27.1969 47.6325 26.4139C48.2685 26.1672 48.5419 26.0871 48.8213 26.0871C49.493 26.0871 49.9685 26.7037 49.9685 27.647C49.9685 30.1133 46.7231 32 42.4018 32C35.3522 32 31.3876 27.3141 31.3876 18.9719C31.3876 10.716 35.1917 5.74027 41.4864 5.74027C46.8717 5.74027 50.4797 9.93295 50.4797 16.1788C50.4797 19.2987 49.6891 20.2482 47.0322 20.2482H37.0938V20.2543ZM45.0172 16.1048C45.4927 16.1048 45.6532 15.9013 45.6532 15.3649C45.6532 11.5854 44.0661 9.53218 41.219 9.53218C38.4074 9.53218 36.5054 11.9985 36.5054 15.5314C36.5054 15.9013 36.7431 16.1048 37.1414 16.1048H45.0172Z" fill="black"/>
</svg>
